<svg xmlns="http://www.w3.org/2000/svg" xmlns:xlink="http://www.w3.org/1999/xlink" viewBox="0 0 144 252"><defs><style>.cls-1,.cls-10,.cls-11{fill:none;}.cls-2{clip-path:url(#clip-path);}.cls-3{opacity:0.75;}.cls-4{fill:#7a9e7c;}.cls-5{opacity:0.5;}.cls-6{fill:#0074bb;}.cls-7{fill:#78a8a9;}.cls-8{fill:#846172;}.cls-9{fill:#407842;}.cls-10,.cls-11,.cls-12{stroke:#2f140c;stroke-miterlimit:10;}.cls-11{stroke-width:0.75px;}.cls-12{fill:#231f20;}</style><clipPath id="clip-path"><rect class="cls-1" width="144" height="252"/></clipPath></defs><g id="Layer_1" data-name="Layer 1"><g class="cls-2"><g class="cls-3"><path class="cls-4" d="M24.8,263.13l-.15-.86c.08.6.08.61,0,0s-.08-.87-.11-1.31q-.07-1.51,0-3c0-.44.05-.87.09-1.3s.06-.58.1-.87c-.09.61-.09.62,0,0,.16-.86.31-1.72.51-2.58a48.44,48.44,0,0,1,1.88-5.88c.41-1.1-.26.54.18-.44.25-.54.49-1.08.75-1.62.41-.86.85-1.72,1.31-2.57.91-1.65,1.88-3.27,2.93-4.84.52-.78,1.07-1.54,1.63-2.29-.51.69-.07.08.2-.25l.9-1.07a39.75,39.75,0,0,1,3.83-3.74c.86-.75-.62.4.24-.19.43-.29.86-.6,1.3-.88a24.88,24.88,0,0,1,2.42-1.35l-7.34-3c.08.53.18,1.07.24,1.61-.13-1.28,0,.24.05.5.13,1,.23,2.05.31,3.07q.24,2.88.27,5.76t-.15,5.76c-.07,1-.15,1.91-.26,2.86,0,.24-.2,2-.07.7-.05.47-.14.94-.21,1.41a56.62,56.62,0,0,1-3,11.15c-.05.13-.62,1.53-.36.9s-.33.75-.39.88c-.4.85-.81,1.7-1.26,2.53s-.91,1.65-1.41,2.46c-.28.46-.58.91-.88,1.36l-.45.68c-.55.75-.28.47.83-.83l2.52-.68c.51,0,2.25.84.85.07l-.83-.47-2.08-1.16-4-2.2,2.3,5.65q1.55-4,3.19-8l.36-.88.19-.44c-.16.39-.18.42,0,.1.28-.66.56-1.32.85-2,.57-1.31,1.15-2.63,1.74-3.93q3.53-7.84,7.49-15.48l-9.14-3.85c-1.9,5.25-1.95,10.91-2.45,16.41-.05.53-.11,1.07-.17,1.61-.11,1,.1-.55,0,.08,0,.27-.09.54-.13.8a32.19,32.19,0,0,1-.76,3.37c-.17.58-.36,1.15-.57,1.72,0,.11-.39.9-.12.33s-.19.36-.25.48c-.24.47-.5.94-.78,1.38-.18.28-.38.55-.56.82-.41.61.74-.88-.09.09-1.71,2-2.1,5.15,0,7.07,1.87,1.72,5.25,2.11,7.07,0,4-4.63,5.49-10.2,6.2-16.14.31-2.63.42-5.28.67-7.92,0-.37.07-.75.11-1.12,0-.21.16-1.26,0-.24.09-.66.2-1.33.33-2a27.9,27.9,0,0,1,1.14-4.09c.85-2.34-.77-5-2.9-5.9a5,5,0,0,0-6.24,2.05,322.48,322.48,0,0,0-14.79,33c-.77,2,.5,4.65,2.3,5.65l6,3.36a11.5,11.5,0,0,0,4,1.68,6.09,6.09,0,0,0,5.86-2.77,47.69,47.69,0,0,0,6-11.23,66.1,66.1,0,0,0,4.25-24.28,94.19,94.19,0,0,0-1.24-14.42,4.67,4.67,0,0,0-2.9-3.24,5.09,5.09,0,0,0-4.45.25c-7.73,3.78-13.27,11.16-17.24,18.59-4.57,8.55-7.11,18-5.38,27.7.46,2.58,3.74,4.27,6.15,3.49a5.14,5.14,0,0,0,3.49-6.15Z"/></g><g class="cls-5"><path class="cls-6" d="M9.06,195.66c-.61,0,.09.05-.25,0a2.38,2.38,0,0,1-.52-.15c.19.08-.19-.11-.23-.14a2.8,2.8,0,0,1-.46-.3c-.45-.34-1-1-1.59-1.43a3,3,0,0,0-4.48,1.08c-.87,2.12,1.09,3.47,2.78,4.16A25,25,0,0,0,9,200.1c1.08.21,2.51-.5,2.38-1.81s-.34-2.84-.59-4.25c-.11-.64-.24-1.28-.37-1.92-.07-.31-.16-.62-.22-.94,0,.19,0,.18,0-.05a1,1,0,0,1-.54.73l-2.56-.67a18,18,0,0,1,1.69,7.66,1.89,1.89,0,0,0,3.2,1.32,16.24,16.24,0,0,1,2.14-2.09,8.36,8.36,0,0,1,1-.6c-.24.11.34-.12.33-.11l.4-.1a1.13,1.13,0,0,1-.72-.12l-.67-.68,0,.11-.25-.94,0,.18.25-.95a3.33,3.33,0,0,1-2.28,1.45c-.58.12.14,0-.2,0h-.39a6.79,6.79,0,0,0-.78,0,3,3,0,0,0-2.37,1.3c-1.08,1.82.28,3.33,1.69,4.35l4,2.89c1.09.79,2.33-.13,2.75-1.12a3.66,3.66,0,0,0-1-3.83,11.58,11.58,0,0,0-3-1.84c-1.06-.55-2.28-1.47-3.51-1.49-1.57,0-2.39,1.5-3.15,2.64a9.73,9.73,0,0,0-1.68,3.2,2.6,2.6,0,0,0,2.61,3.08,4,4,0,0,0,3.17-1.93,8.81,8.81,0,0,0,.76-1.54,4.83,4.83,0,0,1,.57-1,1.93,1.93,0,0,0,0-2.66,1.9,1.9,0,0,0-2.65,0A9.07,9.07,0,0,0,7.59,201q-.12.27-.27.54a.93.93,0,0,1-.19.26s-.08.11-.1.1c.22.06.61,0,.81.19l.48.83c.14.33-.2.57-.06.39a4.4,4.4,0,0,0,.3-.52c.2-.35.42-.7.64-1.05s.4-.61.61-.92.23-.33.35-.5.25-.21.05-.1l-1,.25-.24-.1.45.24.91.46c.52.28,1,.55,1.58.82.37.19.91.49,1.15.64.08.05.3.32.22.18.06.23.07.26,0,.09s0-.16-.07.06L16,201.69l-3-2.18c-.42-.31-.89-.59-1.28-.94.13.09.1.07-.07-.08a.53.53,0,0,1,0,.62.75.75,0,0,1-.37.91.39.39,0,0,1-.31.1,12.3,12.3,0,0,0,2.79-.33,7.77,7.77,0,0,0,2.82-1.64c1-.9,1.87-2.26,1.07-3.57s-2.25-1.17-3.44-.76a12.34,12.34,0,0,0-4.95,3.7l3.2,1.33a22.53,22.53,0,0,0-2.2-9.55,1.89,1.89,0,0,0-2.57-.68,3,3,0,0,0-1.32,2.51,11.89,11.89,0,0,0,.42,2.37c.33,1.59.58,3.18.75,4.79L10,196.48a30.89,30.89,0,0,1-3.3-.75,10,10,0,0,1-1.36-.49l-.38-.19c-.18-.12-.21-.13-.07,0s.18,1.4-.36,1.68c-.19.09-.4,0-.55.06-.11-.09-.07-.06.1.1l.22.22a11.46,11.46,0,0,0,1.34,1.17,6,6,0,0,0,3.45,1.17,1.88,1.88,0,0,0,0-3.75Z"/></g><g class="cls-5"><path class="cls-6" d="M16.58,212.57a16.83,16.83,0,0,0-1.86,7,1.9,1.9,0,0,0,3.2,1.33c2.14-2,2.5-5,2.69-7.71l-3.2,1.32a25,25,0,0,1,3.21,3.38c1.16,1.5,2.66,2.95,4.73,2.29a1.9,1.9,0,0,0,1.12-2.76,18.46,18.46,0,0,0-14.54-9.06,1.9,1.9,0,0,0-1.81,1.38,2,2,0,0,0,.87,2.12,28,28,0,0,0,3.33,1.89c1.35.65,3.05,1.58,4.34.3,1-1,.85-2.68,1-4l.34-4.15-3.68.49,1.25,3.8c.48,1.45.81,3.67,2.76,3.69,1.18,0,2.37-.91,3.33-1.53a6.83,6.83,0,0,1,2.7-1.25L24,209.81a.65.65,0,0,1,.09-.58c-.11.18-.13.21,0,.08,0,0-.42.37-.23.23-.42.32-.91.58-1.36.86l-3.12,1.94a1.92,1.92,0,0,0-.67,2.57,1.9,1.9,0,0,0,2.57.67c1.41-.88,2.84-1.73,4.23-2.64s2.53-2.29,2.15-4.13a1.93,1.93,0,0,0-2.31-1.31,8.75,8.75,0,0,0-3.05,1.29c-.43.26-.85.54-1.27.81l-.65.38-.38.2q-.49.23.24,0l1.33.55q.29.5.15.15l-.12-.38-.25-.76-.46-1.39-1-2.9a1.88,1.88,0,0,0-3.68.5l-.28,3.32-.13,1.66-.06.69,0,.41a.91.91,0,0,1,.49-.8l.95-.26-.69-.34c-.43-.19-.85-.4-1.26-.62-.8-.42-1.56-.89-2.31-1.38l-1,3.49a14.52,14.52,0,0,1,11.3,7.2l1.12-2.75c-.32.08-.25.1.19.06l-.14,0s-.37-.37-.47-.49c-.39-.47-.75-1-1.14-1.45a25.6,25.6,0,0,0-2.73-2.78,1.9,1.9,0,0,0-3.2,1.33,13.6,13.6,0,0,1-.39,2.88c-.06.23-.13.45-.2.68s-.1.25,0,.11l-.18.36a2.84,2.84,0,0,1-.79,1l3.2,1.32a12.4,12.4,0,0,1,1.35-5.09,1.92,1.92,0,0,0-.67-2.57,1.9,1.9,0,0,0-2.57.68Z"/></g><g class="cls-5"><path class="cls-7" d="M3.44,220.51a.85.85,0,0,1,0,.5c-.14.27-.14.27,0,0a1,1,0,0,1-.78.38L.5,220.17c0-1.15-.07-1.44-.2-.86l-.08.22s-.31.75-.17.42a10.28,10.28,0,0,1-.82,1.58c-.1.13-.1.15,0,.05a3.45,3.45,0,0,1-.26.28,2.29,2.29,0,0,1-.27.27c.14-.09.14-.09,0,0l-.49.28q.2-.1-.18,0c.25,0,.22,0-.09,0a2.52,2.52,0,0,0-2.41,1.84A7.19,7.19,0,0,0-4,228.68c.68,1.52,2.07,3.06,3.9,2.82,1.58-.21,2.62-1.58,3.63-2.69s1.79-2,2.63-3.11H2.62a1.7,1.7,0,0,1-.33-1.47c.13-.25.16-.3.07-.14l.06-.1-.35.32a6.16,6.16,0,0,0-1.18,1.37,4,4,0,0,0,.19,4.21,3.82,3.82,0,0,0,4.28,1.48,3.76,3.76,0,0,0,1.71-1.12A3.47,3.47,0,0,0,7.8,229a2.25,2.25,0,0,0,.13-.51c.17-.71-.17-.48-1,.68H5.57L5.32,229l-.9-.89c0-1.29,0-1.64-.19-1,.11-.27.1-.27,0,0-.05.07-.56.84-.29.5a6.28,6.28,0,0,1-.49.54c-.06.06-.75.65-.41.4a6.31,6.31,0,0,1-.82.52c-.08,0-.7.34-.28.16a5.82,5.82,0,0,1-.92.3l-.47.1q.39,0-.06,0A2.54,2.54,0,0,0-2,232.77c.58,2.85,4,3.48,6.21,2.34a30.72,30.72,0,0,0,2.54-1.73,20.89,20.89,0,0,1,2.88-1.53L6,230.36c.55-1.33.59-1.73.1-1.21l.09-.1c-.28.21-.6.39-.9.58l-1.67,1.08,3,3.93c-.19.16,0,0,.11-.08l.45-.26c.35-.18,0,0,.24-.08a4.07,4.07,0,0,1,.5-.13c.4-.09-.31,0,.1,0h.51c.43,0-.32,0,.11,0a6,6,0,0,0,1,.12c2.44-.12,3.21-2.6,4.15-4.44l-4.57-.59A10,10,0,0,1,10,234a2.51,2.51,0,0,0,1.84,2.41A3.18,3.18,0,0,0,15.31,235a5.17,5.17,0,0,0,.38-.74c.05-.11.11-.21.16-.31a1,1,0,0,1,.1-.17,2,2,0,0,1-2.2.86l-1.49-1.15.17-2a2.51,2.51,0,0,0,0,3.53A2.54,2.54,0,0,0,16,235a3.24,3.24,0,0,0,.82-3.59,2.72,2.72,0,0,0-3.34-1.63,3.32,3.32,0,0,0-1.94,1.66c-.12.21-.2.43-.31.65a1.79,1.79,0,0,0-.12.24c-.11.16-.09.15,0-.05a1.84,1.84,0,0,1,2.07-.68L15,234a14.26,14.26,0,0,0-.91-6.2A2.52,2.52,0,0,0,12,226a2.46,2.46,0,0,0-2.49,1.19l-.82,1.6-.38.73-.14.29c-.14.27-.15.27,0,0l1.11-.65q.93.06.45,0L9,229.09c-.26,0-.51,0-.77,0a8.5,8.5,0,0,0-1.81.26,8.34,8.34,0,0,0-3.25,1.78,2.5,2.5,0,0,0,3,3.93c2.25-1.45,5.28-2.8,4.67-6-.33-1.75-2.33-2.09-3.67-1.5a21.11,21.11,0,0,0-3.87,2.2c-.12.09-1.4,1.17-1.55,1.06a.38.38,0,0,1,.33-.07c-.29,0-.27,0,.06,0a.91.91,0,0,1,.43.26c.31.71.42.86.31.44L.45,234.61a10.32,10.32,0,0,0,6.33-2.78c1.78-1.69,4-5.42,1-7.18a3.13,3.13,0,0,0-4.43,1.65,2.5,2.5,0,0,0-.26,1q-.12.5.33-.39a1.06,1.06,0,0,1,.31-.21,1.17,1.17,0,0,1,1.63,1.19.7.7,0,0,1-.14.36l0,0c.18-.14.35-.33.52-.48a4.9,4.9,0,0,0,1.07-1.33,3.51,3.51,0,0,0-.6-4.28c-1-.77-2.64-1.15-3.54,0-.68.88-1.38,1.73-2.12,2.56-.33.37-.67.75-1,1.11-.2.22-.41.44-.63.65l-.21.22c-.36.32-.27.3.26-.07H.23c.44.1.69.63.43.2a3.75,3.75,0,0,1-.24-.44c.07.17.08.17,0,0A2.37,2.37,0,0,1,.35,226c0,.2,0,.22,0,0s.07-.89,0-.46l-2.41,1.83a6.88,6.88,0,0,0,5.62-3.38,16.05,16.05,0,0,0,1.33-2.81,3.89,3.89,0,0,0-.06-3.59,2.47,2.47,0,0,0-2.16-1.24,4.54,4.54,0,0,0-3.42,1.93,4.45,4.45,0,0,0-.62,3.5,2.53,2.53,0,0,0,3.08,1.75,2.55,2.55,0,0,0,1.74-3.08Z"/></g><g class="cls-5"><path class="cls-7" d="M15.86,238.72a13.6,13.6,0,0,0-2.85-.94,13.81,13.81,0,0,0-3-.25,2.59,2.59,0,0,0-1.76.73A2.51,2.51,0,0,0,10,242.53a9.52,9.52,0,0,1,1.85.09l-.66-.09a10.77,10.77,0,0,1,2.67.72l-.6-.25.08,0a1.86,1.86,0,0,0,.93.3,1.9,1.9,0,0,0,1-.05A2.49,2.49,0,0,0,17,240.21a2.38,2.38,0,0,0-1.15-1.49Z"/></g><g class="cls-3"><path class="cls-8" d="M39.08,184.7c-.92.24,0,0,.18,0-1.09.13.22-.08.2.08,0-.06-.69-.09-.75-.19.2.3.66.35.1,0s-.94-.55-1.41-.86c-.77-.51-.13-.1,0,0l-1-.81c-2-1.77-3.95-3.59-5.92-5.38a54.25,54.25,0,0,1-4.83-4.88c-.52-.6.6,1-.08-.14l-.46-.68a11.37,11.37,0,0,0-.8-1.45c.16,0,.32,1.2.17.28,0,.2-.06,1.14.06.38-.24,1.5-1,4.07-3.41,3.49a6.4,6.4,0,0,0,.88.07,16.77,16.77,0,0,0,7.81-1,25.25,25.25,0,0,0,3.9-1.93c.46-.28.92-.55,1.39-.81l.7-.35c.54-.29-.72.51.06,0,.94-.6-.15.28-.21,0,0,.05.67-.09.77,0-.41-.3-.63-.15-.11,0,.24.09.53.19.79.26-.88-.23-.29-.12,0,0l.78.34a18.34,18.34,0,0,0,2.78,1.07,19.77,19.77,0,0,0,4,.48c.51,0,1,0,1.54,0l.76,0c1.14.05-.94-.32.12,0,.09,0,.67.22.68.21l-.54-.21c.38.25.41.25.09,0-.51-.47,0,.11.14.22.42.4-.5-.78,0,0A16.7,16.7,0,0,0,50,176.5c3,2.86,7.82,3.34,10.84.34l-7.88-1c.06.1.34.69.1.1s0,0,0,.12c0-.15-.13-1.14,0-.2,0,.1,0,.79,0,.1s0-.06,0,.12l-.15.59c-.11.36-.61,1.37-.17.55-.94,1.77-2,3.46-3,5.17l-1.5,2.4-.84,1.34c-.11.17-.22.35-.34.51s-.61.76-.2.32c.52-.59-.85.72-.24.25s-.1,0-.18.07c-.88.44-.11,0,0,0-.41.1-.82.22-1.24.29,1-.18-.14,0-.53-.05l-.62,0c-1.08,0,.06.06.12,0a3.09,3.09,0,0,1-1.21-.25c-.4-.1-.78-.23-1.18-.35-.08,0-.74-.25-.17,0s-.41-.19-.53-.25a19.33,19.33,0,0,1-2.16-1.26l-.51-.36c-.62-.4.57.52,0,0-.37-.33-.76-.64-1.12-1a36.32,36.32,0,0,1-3.72-4.12c.59.74-.19-.28-.38-.52l-.75-1-.75-1.05-.37-.53-.23-.33c-.24-.42-.28-.45-.13-.1-.11.37.12,1.29.07,1.73,0,.11-.43.69-.11.27,0,0,.25-.5.31-.49s-.7.67-.2.31c0,0,.39-.39.4-.38s-1.06.63-.12.13c.16-.09.34-.17.49-.27.5-.32-.76.18-.18.09a4.77,4.77,0,0,0,.54-.15c.3-.08.54.07.06,0-.69-.13-.06.19.07.05.36-.41.77,1-.27-.07a6.34,6.34,0,0,0,1,.28c-.08,0-.83-.45-.4-.14.18.12.41.25.6.36.52.28-.37-.25-.32-.25s.51.49.51.49c.63.62-.37-.68,0,.11s-.18-.8.07.13c.13.5.25,1,.35,1.49.18,1-.09-.8,0,.19.09.7.18,1.4.28,2.1a12.63,12.63,0,0,0,.56,2.58,10.08,10.08,0,0,0,19.72-3,12.43,12.43,0,0,0-3.32-7.79c-1.54-1.86-3.46-3.88-5.9-4.43-3-.67-5.58.63-8.26,1.68L30.26,174c-2,.78-3.79,2.49-3.69,4.84a5.17,5.17,0,0,0,3.69,4.84L34.93,185a5,5,0,0,0,2.67-9.68L32.93,174v9.68l6.24-2.44,2.91-1.14c.48-.19,1-.36,1.47-.55s.44.07.16-.07a1.18,1.18,0,0,1-1-.15c-.8-.29-.93-.29-.38,0-.72-.44-.21-.1.13.24s.66.68,1,1c.13.16.26.32.4.47,0,0-.46-.69-.16-.22.15.23.31.44.45.67s.45.89.19.29,0,0,0,.14c.27.89,0,0,0-.2,0,.49.17.2.06,0l0-.32-.07.35c.08.82-.21-.09.15-.21a2.6,2.6,0,0,0-.25.47c-.19.49.15-.31.27-.3s-.92.87-.26.32-.07,0-.07,0-1.23.5.25-.1c-.17.07-.71.11,0,.05.94-.09,0,0,0,0s-.94-.16,0,0c.78.17,0,0-.15-.07a2.21,2.21,0,0,0-.48-.15l.59.23-.29-.17-.28-.18.5.36c-.13-.11-.57-.36-.05,0s.14.18,0-.07c-.59-.89.14.15,0,.19s-.29-1-.31-1.08-.09-.49-.14-.74c-.12-.63-.06-.15,0,.19-.28-1.17-.27-2.43-.5-3.62a12.29,12.29,0,0,0-1.2-3.33,11.3,11.3,0,0,0-4.76-4.7,11.63,11.63,0,0,0-13.6,2.13c-2.12,2.19-3.48,5.34-2.5,8.37.66,2.06,2.19,3.83,3.47,5.54,2.73,3.65,5.69,7.08,9.61,9.5A19.1,19.1,0,0,0,48,197.19c5.71-1.06,8.25-6.5,11-11,2.92-4.65,5.69-10.16,2.58-15.48a5.08,5.08,0,0,0-7.89-1,3,3,0,0,1,1.6-.78c.27-.05,1.68.16.79-.09.13,0,1.07.48.34,0,.86.51.54.44.29.15.75.87.21.26,0,0l-.49-.77a20.32,20.32,0,0,0-1.61-2.2c-2.24-2.61-5.58-3.3-8.85-3.41-.52,0-1,0-1.55,0h-.47c.79,0-.32-.07-.45-.1-.35-.09-1.73-.62-.77-.22-1-.42-1.94-.88-3-1.24-3.33-1.18-6.71-.36-9.71,1.29-1.06.58-2.08,1.21-3.13,1.79s.55-.1-.19.07c-.34.08-.68.23-1,.32l-.84.18c-1.28.27.94,0-.37,0s-2.36-.2-3.53-.14a6.54,6.54,0,0,0-6,4.6c-1.68,6.11,4.4,11.69,8.44,15.36C25.67,186.75,28,189,30.48,191c3.26,2.63,7,4.45,11.27,3.34a5.06,5.06,0,0,0,3.5-6.17,5.12,5.12,0,0,0-6.17-3.51Z"/></g><g class="cls-3"><path class="cls-9" d="M54.49,198.71c-.28,3.14-1.47,6.14-2.47,9.1A17,17,0,0,1,50.29,212a8.58,8.58,0,0,1-3,2.67l1.84.74c-.32-1.44-1.37-2.74-.83-4.25a36.74,36.74,0,0,1,1.85-4.1,18.58,18.58,0,0,1,5.31-7l-1.83-1.41A57.68,57.68,0,0,1,47.1,212l2.16,1.26L52,208.1l-2.28-1-1.91,6.39c-.47,1.57,1.85,2.14,2.41.66.89-2.3.56-4.75.22-7.13a1.25,1.25,0,0,0-2.41.67,11.29,11.29,0,0,1-.22,5.8l2.41.66,1.91-6.38a1.26,1.26,0,0,0-2.29-1L47.1,212a1.25,1.25,0,0,0,2.16,1.26,60.23,60.23,0,0,0,6.74-14c.32-1-1-2.06-1.84-1.42A21.32,21.32,0,0,0,47.83,206a31.42,31.42,0,0,0-2.07,4.72c-.59,2,.51,3.47.91,5.32a1.26,1.26,0,0,0,1.84.74,11,11,0,0,0,3.54-3,15.62,15.62,0,0,0,2.18-4.7c1.15-3.39,2.44-6.76,2.76-10.35.14-1.6-2.36-1.59-2.5,0Z"/></g><path class="cls-10" d="M39.49,194.49c2.08,12.21,10.85,24.74,14.68,36.39,6.86,20.86,4.75,48.18,4.75,48.18"/><path class="cls-10" d="M49.23,177.94s-2.43,16.75-12,16.95-13.65-18.37-12.06-24.27,8.56-.47,11.34-.26,8.31-5.57,11.63-2.11C50.37,170.61,49.23,177.94,49.23,177.94Z"/><path class="cls-10" d="M43.51,191.74s5.84,2.24,10-5.34,6.17-14,4.68-16.77-4.73,2.27-6.27,1.77-3.82-3.15-3.82-3.15"/><path class="cls-10" d="M28.32,188.1s-10.78-11.25-11.23-15.24,3.05-4.81,5.54-3.53l2.5,1.29"/><path class="cls-10" d="M55.2,169.58s-1.32-4.62-4.88-5.08-5,.75-6.65.62-2.91-1.39-4.59-1.5-4.82.58-5.47,5.81"/><path class="cls-10" d="M46.53,213.65s0-13.9,10.21-16.09c0,0-.44,11.43-9.37,17.81"/><ellipse class="cls-11" cx="13.93" cy="196.69" rx="3.57" ry="1.71" transform="translate(-96.48 33.32) rotate(-30)"/><ellipse class="cls-11" cx="13.4" cy="201.45" rx="1.71" ry="3.57" transform="translate(-162.41 102.2) rotate(-56.75)"/><ellipse class="cls-11" cx="8.09" cy="202.28" rx="3.57" ry="1.71" transform="translate(-176.4 118.95) rotate(-63.4)"/><ellipse class="cls-11" cx="5.88" cy="197.41" rx="1.71" ry="3.57" transform="translate(-186.21 151.5) rotate(-74.85)"/><ellipse class="cls-11" cx="9.35" cy="194.19" rx="1.71" ry="3.57" transform="matrix(0.97, -0.26, 0.26, 0.97, -49.94, 9.04)"/><circle class="cls-12" cx="9.98" cy="198.52" r="1.58"/><ellipse class="cls-11" cx="23.2" cy="210.89" rx="3.57" ry="1.71" transform="translate(-102.34 39.85) rotate(-30)"/><ellipse class="cls-11" cx="22.67" cy="215.65" rx="1.71" ry="3.57" transform="translate(-170.1 116.36) rotate(-56.75)"/><ellipse class="cls-11" cx="17.36" cy="216.48" rx="3.57" ry="1.71" transform="translate(-183.99 135.08) rotate(-63.4)"/><ellipse class="cls-11" cx="15.15" cy="211.61" rx="1.71" ry="3.57" transform="translate(-193.07 170.94) rotate(-74.85)"/><ellipse class="cls-11" cx="18.62" cy="208.39" rx="1.71" ry="3.57" transform="matrix(0.97, -0.26, 0.26, 0.97, -53.3, 11.92)"/><circle class="cls-12" cx="19.24" cy="212.72" r="1.58"/><ellipse class="cls-11" cx="1.71" cy="219.33" rx="3.31" ry="1.59" transform="translate(-175.85 90.56) rotate(-53.6)"/><ellipse class="cls-11" cx="11.34" cy="230.5" rx="3.31" ry="1.59" transform="translate(-215.95 190.53) rotate(-77.21)"/><ellipse class="cls-11" cx="14.2" cy="232.61" rx="3.31" ry="1.59" transform="translate(-194.35 128.6) rotate(-60)"/><path class="cls-11" d="M8.19,227.91c-.65,1.71-1.85,2.83-2.67,2.52a7.76,7.76,0,0,1-2-1.89c1-1.51,3.18-4.21,4-3.89S8.85,226.2,8.19,227.91Z"/><path class="cls-11" d="M5.59,225c-.74,1.67-1.56,3-2.36,2.67s-.84-2-.1-3.66,2-2.73,2.8-2.38S6.34,223.33,5.59,225Z"/><path class="cls-11" d="M11.43,240.52c-1.8.32-3.39.41-3.54-.45s1.18-1.82,3-2.14,3.38.12,3.53,1S13.23,240.2,11.43,240.52Z"/><ellipse class="cls-11" cx="-2.03" cy="225" rx="1.59" ry="3.31" transform="translate(-226.21 205.68) rotate(-85.59)"/><path class="cls-11" d="M.05,229.86c-.45,0-1.13.36-1.52.25-1.17-.34-.61-1.51-.56-2.16.06-.88.5-1.39,2.33-1.25s3.24,1,3.17,1.84S1.87,230,.05,229.86Z"/><path class="cls-11" d="M1.9,230c-.33.31-1.18-.14-1.54,0-1.08.54-.63,2.1-.46,2.74.23.85,1.06.76,2.83.29s3.42-1.8,2.78-2.39C4.49,229.73,3.47,228.54,1.9,230Z"/><path class="cls-11" d="M3.29,223.48c-.67.92-1.65,1.34-2.18,1a1.51,1.51,0,0,1-.45-2.17c.67-.92,2.36-1.53,2.89-1.14S4,222.57,3.29,223.48Z"/><ellipse class="cls-11" cx="5.98" cy="233" rx="2.06" ry="1.2" transform="translate(-67.72 11.88) rotate(-16.96)"/><path class="cls-11" d="M9.63,230.43c-.37,1.07-1.18,1.77-1.8,1.55s-.83-1.26-.46-2.34,1-1,1.6-.81S10,229.35,9.63,230.43Z"/><path class="cls-11" d="M13.75,240.2c1.14-.07,2.09.41,2.13,1.07s-.85,1.25-2,1.32-1.33-.49-1.37-1.15S12.62,240.27,13.75,240.2Z"/><path class="cls-11" d="M-5.08,212.34c.86,1.19,3.62,8,7.6,14.71,4.11,6.95,7.39,3.57,12.08,11.36,8.43,14,6.29,16.34,8.73,19.9"/><path class="cls-11" d="M14.62,262.87S9.74,236.25,41.9,220.61c0,0,11.67,20.92-8.82,53.31Z"/><path class="cls-11" d="M25.74,259.7s2.41-16.5,8.86-24.94c1.27-1.65,3.91-5.51,3.91-5.51"/><path class="cls-11" d="M31.65,239.65a10.8,10.8,0,0,1,7.68-2.83"/><path class="cls-11" d="M29.35,245.43A10.81,10.81,0,0,1,37,242.6"/><path class="cls-11" d="M27.22,252.05a10.85,10.85,0,0,1,7.68-2.83"/><path class="cls-11" d="M30.91,231.25A10.81,10.81,0,0,1,32,239.37"/><path class="cls-11" d="M28.31,237.31a10.78,10.78,0,0,1,1.05,8.12"/><path class="cls-11" d="M23.33,245.32a10.8,10.8,0,0,1,3.82,7.24"/><path class="cls-10" d="M21.24,168.77s6.52-10.5,13.81-3.33"/></g></g></svg>