<svg xmlns="http://www.w3.org/2000/svg" xmlns:xlink="http://www.w3.org/1999/xlink" viewBox="0 0 144 252"><defs><style>.cls-1,.cls-11,.cls-12,.cls-14,.cls-15{fill:none;}.cls-2{clip-path:url(#clip-path);}.cls-3{opacity:0.75;}.cls-4{fill:#407842;}.cls-5{fill:#846172;}.cls-6{opacity:0.5;}.cls-7{fill:#0074bb;}.cls-8{fill:#7a9e7c;}.cls-9{fill:#4c4f86;}.cls-10{fill:#78a8a9;}.cls-11,.cls-12,.cls-14{stroke:#2f140c;}.cls-11,.cls-12,.cls-14,.cls-15{stroke-miterlimit:10;}.cls-12{stroke-width:0.73px;}.cls-13{fill:#2f140c;}.cls-14,.cls-15{stroke-width:0.75px;}.cls-15{stroke:#231f20;}.cls-16{fill:#231f20;}</style><clipPath id="clip-path"><rect class="cls-1" width="144" height="252"/></clipPath></defs><g id="Layer_1" data-name="Layer 1"><g class="cls-2"><g class="cls-3"><path class="cls-4" d="M4.74,49.64c0,3.74,1.17,7.38,2.09,11A13.88,13.88,0,0,0,8.55,65a11.59,11.59,0,0,0,3.34,3.24,1.25,1.25,0,0,0,1.83-.75c.52-1.7,1.64-3,1.33-4.9a25.08,25.08,0,0,0-1.71-5A21.28,21.28,0,0,0,7.8,49.06a1.26,1.26,0,0,0-2.09,1.22,60.26,60.26,0,0,0,5.66,14.48c.8,1.44,2.78.17,2.16-1.27l-2.32-5.38c-.58-1.35-2.56-.35-2.28,1l1.41,6.51,2.41-.67A11.4,11.4,0,0,1,13,59.13c.35-1.57-2.06-2.24-2.41-.67-.52,2.35-1,4.76-.28,7.13a1.25,1.25,0,0,0,2.41-.67l-1.41-6.51-2.28,1,2.31,5.39,2.16-1.27A57.73,57.73,0,0,1,8.12,49.62L6,50.83a18.65,18.65,0,0,1,4.9,7.41c.55,1.39,1.12,2.82,1.54,4.26.47,1.6-.71,2.88-1.16,4.35l1.84-.75a8.46,8.46,0,0,1-2.72-2.8,15.19,15.19,0,0,1-1.36-4c-.8-3.17-1.79-6.36-1.83-9.65a1.25,1.25,0,0,0-2.5,0Z"/></g><g class="cls-3"><path class="cls-4" d="M6.8,83.8a15.17,15.17,0,0,1,8.27-4.56,14.26,14.26,0,0,1,5.21,0,17,17,0,0,1,2.52.67c.69.24,1.65.49,2,1.22l.45-1.71c-5.4,3.54-12,3.43-18.21,3.3l.88,2.14c1.85-1.61,4.76-2,7.07-2.56a31.79,31.79,0,0,1,8.42-.84l-.63-2.33a43.29,43.29,0,0,1-8,2.53c-.65.14-1.31.27-2,.37l-.48.07.61,1.12c.09,0,.58-.46.72-.55a10.75,10.75,0,0,1,3.55-1.48,1.26,1.26,0,0,0,0-2.41,6.77,6.77,0,0,0-3.81-.14,29.64,29.64,0,0,1-3.26,1.2l.66,2.41a19.48,19.48,0,0,1,8.58-.66c1.58.23,2.26-2.17.67-2.41a22.3,22.3,0,0,0-9.91.66,1.25,1.25,0,0,0,.66,2.41,11.81,11.81,0,0,0,2.64-1,4.33,4.33,0,0,1,3.11-.08V78.76a12.38,12.38,0,0,0-4.94,2.3,2.26,2.26,0,0,0-1.07,2.06,1.76,1.76,0,0,0,1.79,1.46A14.45,14.45,0,0,0,15,84.13c1-.21,2-.45,3-.73a48,48,0,0,0,6-2.13c1.23-.53.49-2.28-.63-2.33a34.59,34.59,0,0,0-9.45,1c-2.72.62-5.65,1.24-7.8,3.11A1.26,1.26,0,0,0,7,85.2c6.64.14,13.7.14,19.47-3.64a1.29,1.29,0,0,0,.45-1.71c-.74-1.75-3.29-2.41-5-2.82A17.34,17.34,0,0,0,5,82C3.93,83.21,5.7,85,6.8,83.8Z"/></g><g class="cls-3"><path class="cls-4" d="M73.34-3.87C69.89.48,67.55,5.8,68.9,11.43a2.52,2.52,0,0,0,4.82,0c0-.12.36-.91.13-.44.1-.2.2-.4.31-.6.25-.47.5-.94.73-1.43a27.17,27.17,0,0,0,1.4-3.5,26.22,26.22,0,0,0,1.19-6.92A2.52,2.52,0,0,0,75-4a2.55,2.55,0,0,0-2.5,2.5c0,.54-.06,1.08-.12,1.62,0,.15,0,.31,0,.46,0-.25,0-.28,0-.09s-.09.53-.14.8a22.7,22.7,0,0,1-.78,3c-.16.48-.33,1-.52,1.42-.11.27-.11.28,0,0-.07.14-.13.28-.19.42s-.2.42-.31.63A16.29,16.29,0,0,0,68.9,10.1h4.82q-.1-.45-.18-.9c.08.53,0-.14,0-.26a12.36,12.36,0,0,1,0-1.61c0-.11.13-1,0-.49,0-.23.08-.46.13-.69a13.27,13.27,0,0,1,.46-1.67c.08-.25.18-.5.27-.74-.19.49.11-.23.15-.33.22-.47.47-.93.73-1.39s.54-.89.84-1.33l.45-.64.27-.36c-.16.21-.15.2,0,0a2.56,2.56,0,0,0,0-3.54C76-4.7,74.2-5,73.34-3.87Z"/></g><g class="cls-3"><path class="cls-4" d="M103.38,4.19c-2.63-.83-5.9-.39-8.52.36-2.82.8-5.24,3-7.4,4.88s-3.35,4.5-4.33,7.2a23.48,23.48,0,0,0-1.48,8.82,1.38,1.38,0,0,0,2.06,1.18,12.08,12.08,0,0,0,5.05-5.86c1.15-2.87.78-5.95.36-8.93-.21-1.43-2.27-1.17-2.64,0L83.07,22.61l2.64.73a48.91,48.91,0,0,1,2.11-7.12c.34-.9.64-2.32,1.37-3s2.36-.67,3.3-.84c4.21-.76,9.34-1.54,11.49-5.79.5-1-.34-2.45-1.54-2q-5.53,2-11.13,3.86c-1.67.55-1,3.19.73,2.64q5.59-1.83,11.13-3.86l-1.55-2c-2.19,4.31-8.31,4-12.32,5-2.53.65-3.21,2.89-4,5.1a48.51,48.51,0,0,0-2.18,7.29,1.37,1.37,0,0,0,2.64.73l3.41-10.77H86.48c.34,2.38.63,4.89-.25,7.2a9.24,9.24,0,0,1-3.9,4.49l2.06,1.19a21,21,0,0,1,1.2-7.57,14.48,14.48,0,0,1,3.56-6.3C90.9,10,93,8,95.27,7.29a13,13,0,0,1,7.39-.46c1.68.53,2.4-2.12.72-2.64Z"/></g><g class="cls-3"><path class="cls-4" d="M113.13,13.84a17,17,0,0,0-7.43,3.42,25.5,25.5,0,0,0-5.31,6.53c-2.44,4.38-3.08,10.38.4,14.39a1.25,1.25,0,0,0,2-.25,21.62,21.62,0,0,0,1.74-7.13c.11-1.2.15-2.39.18-3.59a5.59,5.59,0,0,0-.59-3.42,1.26,1.26,0,0,0-2-.25c-1.13,1.26-1.5,3.45-1.82,5.08a27.18,27.18,0,0,0-.52,5.7,1.26,1.26,0,0,0,2.46.33c.49-2.08.09-4.14.26-6.23a9,9,0,0,1,2.82-5.31,26.37,26.37,0,0,1,4.85-3.39,9.14,9.14,0,0,0,4-4l-2.28-1a.45.45,0,0,1-.3.35l1.77,1.77a7.66,7.66,0,0,0,.8-.71l-2-1.52a4.41,4.41,0,0,1-1.51,1.67c-1.34.87-.09,3,1.26,2.16a7.21,7.21,0,0,0,2.41-2.56,1.26,1.26,0,0,0-2-1.52,6.76,6.76,0,0,1-.8.71c-1.27,1,.51,2.74,1.77,1.77a2.73,2.73,0,0,0,.94-1.45c.39-1.34-1.64-2.25-2.29-1a6.08,6.08,0,0,1-1.87,2.41c-.79.57-1.69,1-2.51,1.49a20.24,20.24,0,0,0-4.83,3.84,11.91,11.91,0,0,0-2.68,5.34c-.34,2.15.22,4.36-.28,6.48l2.45.34a23.9,23.9,0,0,1,.35-4.63,20.5,20.5,0,0,1,.46-2,6.54,6.54,0,0,1,.8-2.36l-2-.25c.52.78.26,2.06.23,3s-.07,1.86-.16,2.79a18,18,0,0,1-1.4,5.87l2-.26c-2.88-3.31-1.76-8.61.36-12A24.42,24.42,0,0,1,107.47,19a14.48,14.48,0,0,1,6.32-2.78c1.57-.37.9-2.79-.66-2.41Z"/></g><g class="cls-3"><path class="cls-4" d="M122.21,43.1c-3.41-3.78-3.89-9.11-3.8-14a5.79,5.79,0,0,1,.76-3.26,14.27,14.27,0,0,1,2.58-2.45c1-.8,1.93-1.62,3-2.33s2.4-.11,3.5.05l-.88-1.54a18.76,18.76,0,0,1-3,6.38c-1.65,2-3.85,2.53-6.3,2.85-.69.09-1.56.74-1.2,1.58.93,2.22,2,4.43,2.77,6.69a18.42,18.42,0,0,1,.84,7l2.46-.33L121,37.14a29,29,0,0,1-1.29-5.95,3.15,3.15,0,0,1,1.07-2.61l2.1-2.28,4.52-4.92-2.09-1.21a11.07,11.07,0,0,1-2.18,4.21,17.85,17.85,0,0,1-1.86,1.49c-.61.46-1.21,1.17-2,1.11l1.21.92c-.36-1.12.81-1.83,1.6-2.38,1-.71,2-1.39,3.06-2.09,1.33-.9.08-3.06-1.26-2.16-2.36,1.61-7,3.71-5.81,7.3a1.29,1.29,0,0,0,1.2.91,3.74,3.74,0,0,0,2.61-.91c.92-.68,1.89-1.36,2.74-2.13,1.63-1.48,2.41-3.59,3.13-5.61a1.26,1.26,0,0,0-2.09-1.21l-5.16,5.61c-1.37,1.49-3.14,2.94-3.27,5.09a21,21,0,0,0,1.13,6.57c.69,2.51,1.39,5,2.08,7.52a1.26,1.26,0,0,0,2.46-.33,20.66,20.66,0,0,0-.78-7.26c-.83-2.41-1.94-4.74-2.92-7.09L118,31.31c3-.39,5.72-1,7.82-3.3s3-5,3.92-7.76a1.24,1.24,0,0,0-.87-1.54c-1.31-.19-3-.72-4.27-.39S122.06,20,121,20.77c-2.32,1.86-4.64,3.62-5,6.75-.72,5.89.35,12.83,4.42,17.35,1.08,1.2,2.85-.57,1.77-1.77Z"/></g><g class="cls-3"><path class="cls-4" d="M131.26,34.34a12.63,12.63,0,0,1,6.82-1,8.71,8.71,0,0,1,3.15,1.38c.64.44,1.72,1.14,1.85,2a.82.82,0,0,1,0,.27c-.07.17,0,.14.21-.08,0,0-.48,0-.55,0-.63-.08-1.26-.22-1.88-.34-1.11-.21-2.21-.43-3.3-.71a17.45,17.45,0,0,1-6-2.59l-.3,2.28c.81-.28,1.43.49,1.93,1a11,11,0,0,0,2.18,1.91A9.84,9.84,0,0,0,140.56,40c1.5,0,5-.32,4.73-2.47-.12-1.12-1.32-1.68-2.18-2.18a30.18,30.18,0,0,0-2.82-1.47,33.1,33.1,0,0,0-6.78-2.25,1.27,1.27,0,0,0-1.41,1.84,8.63,8.63,0,0,0,7.51,4.33,1.26,1.26,0,0,0,.63-2.33,8.26,8.26,0,0,0-3-.88l.63,2.33.34-.24a1.29,1.29,0,0,0,.45-1.71,1.26,1.26,0,0,0-1.71-.45l-.35.24a1.26,1.26,0,0,0,.64,2.33,4.78,4.78,0,0,1,1.69.54l.63-2.33a6.1,6.1,0,0,1-5.35-3.09L132.85,34a32.08,32.08,0,0,1,5.4,1.66c.84.35,1.66.75,2.47,1.18.38.2.76.41,1.13.63l.61.36.29.19c.23.19.26.17.11,0v-.66h0l.44-.45a5.35,5.35,0,0,1-3,.58,7.27,7.27,0,0,1-3.13-.87c-2.14-1.16-3.65-4.49-6.54-3.48a1.27,1.27,0,0,0-.3,2.29,18.73,18.73,0,0,0,5.94,2.67c1.09.3,2.19.54,3.29.76a31.22,31.22,0,0,0,3.46.58,2.33,2.33,0,0,0,2.54-1.95,3.9,3.9,0,0,0-1-3.18,10.63,10.63,0,0,0-6-3.39,15.2,15.2,0,0,0-7.93,1.05,1.29,1.29,0,0,0-.87,1.54,1.26,1.26,0,0,0,1.54.87Z"/></g><g class="cls-3"><path class="cls-5" d="M29.47,19.42a8.3,8.3,0,0,0-4.63-2.65l2.22,8.39c-1.82,1.64-5.41,1.43-6-1.44l6.17-6.18a53.91,53.91,0,0,0-15.47-2.09c-4.88.06-7,6.89-2.53,9.35l.2.11-1.8-1.8,3.14-6-.36,0a12.19,12.19,0,0,0-1.68.21,7.16,7.16,0,0,0-2.05.77,6,6,0,0,0-3,5.29c.16,2.74,1.14,5.57,1.76,8.24.55,2.38,1,4.87,1.71,7.18,1.15,3.47,3.7,5.79,7.42,6,.52,0,1,0,1.54,0,.19,0,.39,0,.58,0,.88-.06,0,0-.2-.07-.89-.26-.44-.23-.15,0s.44.3.66.43a8,8,0,0,0,2.92,1,25.11,25.11,0,0,0,3.22,0A10.72,10.72,0,0,1,22,45.83c-.13-.08-.84-.73-.22-.12a9.13,9.13,0,0,0,1.8,1.43,6.67,6.67,0,0,0,6.37,0,13.8,13.8,0,0,0,3-2.46,16.23,16.23,0,0,1,1.24-1.1c-.82.68.42-.28.66-.44.93-.62,1.88-1.19,2.82-1.79,4.82-3.08,9.79-7.79,9.23-14.06a5.12,5.12,0,0,0-3.08-4.59,5,5,0,0,0-5.49,1c-.3.35-.89.69.14,0-.86.57,1.08-.4.11,0s1.16-.08.15,0,.88.2.3,0c-.42-.12,1,.66.11.05-.49-.34.83.76.23.12.95,1,.23.26,0,0a6.52,6.52,0,0,0-2-2C32.11,18.61,27,24,27,29.18a9,9,0,0,0,.45,2.92l.21.57c-.14-2.11.5-3.44,1.94-4,.43-.18.38-.17-.15,0l-.44.14a41.24,41.24,0,0,1-5.39,1.35l-1.14.2-.68.1q.73-.11.18,0c-.84.06-1.69.16-2.53.21a44.67,44.67,0,0,1-5.55-.05L18.69,37l1.88-13-8.39,2.22s.78.92.37.35.16.33.24.45c.58.93-.17-.84.08.22,0,.06.19.74.18.75-.07-.64-.09-.77-.06-.38,0,.19,0,.39.06.59a10.77,10.77,0,0,0,.28,1.7,6.29,6.29,0,0,0,2.83,3.66c3,1.69,7.06,1,10.35.59,2.61-.29,5.15-2.11,5-5-.11-2.48-2.22-5.33-5-5-1.32.14-2.64.26-4,.34-.7,0-1.4.08-2.1.08a3.78,3.78,0,0,0-.67,0c1.67-.52,3.31,5,3.26,3.09a12.66,12.66,0,0,0-3.75-8.49,5.05,5.05,0,0,0-4.89-1.29,4.91,4.91,0,0,0-3.5,3.51L9,34.31c-.48,3.36,1.29,6.12,4.85,6.36a48.56,48.56,0,0,0,15.78-1.55c3.17-.85,6.78-1.91,7.74-5.49a7,7,0,0,0,0-3.43c-.07-.27-.17-.51-.26-.77s-.39-.92-.13-.22c.37,1-.32-.66,0,.28-.07.38-.07.42,0,.15s0-.23-.09.09-.17.36,0,.12a3.07,3.07,0,0,1,.17-.31l-.06.09a2.83,2.83,0,0,1-2.6,1.28l-2.54-.69c.89.38-.9-.86-.88-1a8.27,8.27,0,0,0,.77,1,7.7,7.7,0,0,0,1.52,1.55,8.76,8.76,0,0,0,4.26,1.8,8.91,8.91,0,0,0,8-2.73l-8.57-3.55a6.33,6.33,0,0,1,.05.76c0,.57,0,.5.07-.22,0,0-.37,2.09-.07.57a5.22,5.22,0,0,1-.75,1.34c-.33.45-.3.42.08-.09-.17.21-.34.4-.52.59-.37.39-.76.73-1.14,1.09s-.4.34.1-.06c-.22.17-.45.33-.68.49-.8.55-1.63,1.07-2.46,1.59a32.23,32.23,0,0,0-6,4.53c-.17.17-.53.72-.79.78a2.91,2.91,0,0,1,3-.61c1.39.93,1.76,1.11,1.12.53a7.57,7.57,0,0,0-4-2.25,9,9,0,0,0-2.42-.15,7.93,7.93,0,0,0-1.47.06c1.55.55,1.92.62,1.13.2l-.5-.32a8.43,8.43,0,0,0-2.05-1,12.26,12.26,0,0,0-4-.34,6.43,6.43,0,0,1-.76,0,2.13,2.13,0,0,1,1.12.31,2.59,2.59,0,0,1,.87.81c.24.67.27.75.08.22-.58-2.22-1.08-4.47-1.6-6.7l-.87-3.78c-.15-.63-.29-1.26-.44-1.89l-.21-.95q-.4-2.07-.42,2.32L11.51,27c.6-.46-.77.28-1.12.22a14.54,14.54,0,0,0,2-.25,6.3,6.3,0,0,0,3.81-2.72,5.8,5.8,0,0,0-2-8.09l-2.54,9.36c1.12,0,2.23,0,3.34.06.64,0,1.27.08,1.91.14l1,.1c.53.07.63.08.27,0s-.25,0,.28.05l.94.15,1.64.32c1.17.25,2.32.55,3.47.89,3.86,1.11,7-2.54,6.18-6.18a6.42,6.42,0,0,0-4.47-4.58A6.56,6.56,0,0,0,20,18.07c-2.65,2.37-1.48,7.76,2.21,8.39.31.05,1.32.41.14-.07.85.34-.58-.61.06.13a5,5,0,0,0,7.1,0,5.14,5.14,0,0,0,0-7.1Z"/></g><g class="cls-6"><path class="cls-7" d="M55.16,76.11l-4.28-3.55L49.05,75.7a9.83,9.83,0,0,1,4.74,3.49,1.91,1.91,0,0,0,2.35.77,1.86,1.86,0,0,0,1.08-2.21A10.3,10.3,0,0,1,56.63,74c0-.45,0-1.28,0-1.5a3.15,3.15,0,0,1,.09-.42c.08-.22.09-.27,0-.15.21-.52.35-.23-.15-.11h-1l-.14-.06-.67-.67c-.09-.52-.13-.62-.13-.28l0,.27c0,.28,0,.55-.08.82-.06.52-.15,1-.25,1.54a25.29,25.29,0,0,1-.9,3.31,1.89,1.89,0,0,0,2.31,2.31A6.76,6.76,0,0,1,58,78.59a2.38,2.38,0,0,1,.9.1c.06,0,.52.2.36.12l.18.11c.36.25.29.11-.22-.43v-1l-.06.15L60,76.53l-.15.08,1-.26a26.87,26.87,0,0,1-5.67-.07,1.89,1.89,0,0,0-1.62,2.82,24.35,24.35,0,0,1,1.91,3.18l.23.48c-.05-.15,0-.11,0,.11a3,3,0,0,1,.16.59c0-.18,0-.15,0,.08a.31.31,0,0,1,0-.19,2.81,2.81,0,0,1,.62-.33c-.29.08-.14,0,0,.06-.19-.12-.22-.13-.1,0-.15-.14-.18-.17-.08-.1a3.12,3.12,0,0,1-.18-1.1,11.08,11.08,0,0,0-.29-3.76,1.91,1.91,0,0,0-2.31-1.31,10.69,10.69,0,0,0-5.29,3.9,1.9,1.9,0,0,0,.67,2.57,1.93,1.93,0,0,0,2.57-.67,6.49,6.49,0,0,1,3.05-2.18l-2.31-1.31a6.07,6.07,0,0,1,.17,2.29,7.12,7.12,0,0,0,.34,2.71,3.86,3.86,0,0,0,4.57,2.54c2-.56,2.56-2.79,2-4.57a17.81,17.81,0,0,0-2.62-4.85L55.11,80a37.81,37.81,0,0,0,4.39.14,4.68,4.68,0,0,0,2.37-.41,2.15,2.15,0,0,0,.65-3,5.12,5.12,0,0,0-3.9-1.94,9.07,9.07,0,0,0-3.89.59L57,77.77a28.57,28.57,0,0,0,1.27-5.71,4.45,4.45,0,0,0-.23-2.77,2.34,2.34,0,0,0-3.28-.73c-1.58,1-1.93,3.07-1.93,4.77a14.61,14.61,0,0,0,.74,5.42L57,77.3a14.09,14.09,0,0,0-7-5.22c-1.72-.58-3.27,1.94-1.83,3.14l4.28,3.54a1.93,1.93,0,0,0,2.66,0,1.9,1.9,0,0,0,0-2.65Z"/></g><g class="cls-6"><path class="cls-7" d="M43.71,60.67a23.49,23.49,0,0,1-.39-4.51L41.94,58c.5-.21-.56,0-.82-.31s-.09-.17-.14-.1a7.54,7.54,0,0,0,.06.79l.14,2.26c0,.36,0,.73.06,1.09a1.93,1.93,0,0,0,0,.34c0,.18,0-.14.08-.24l1.43-.47-.19-.11a3.12,3.12,0,0,0-.45-.34c-.28-.21-.56-.41-.86-.6a8.63,8.63,0,0,0-4.37-1.48,4,4,0,0,0-3.79,2.63,1.82,1.82,0,0,0,.48,1.82c1.31,1.13,3,.93,4.59.94l4.56,0L41.1,61.41l-2.73,4.44a6,6,0,0,0-1,2.32,3,3,0,0,0,.83,2.54c1.55,1.45,3.81.61,4.91-.93A5,5,0,0,0,44,67.64c.08-.46.12-.92.17-1.39,0-.2.07-.43.06-.63,0-.41.35-.36-.22.19l-.82.48.15,0h-1c-.18,0-.6-.52-.26-.09l.43.54a9.33,9.33,0,0,0,.68.73A13.23,13.23,0,0,0,45,68.94a3.69,3.69,0,0,0,2.6.84A2.67,2.67,0,0,0,49.8,68c.6-1.72-.49-3.25-1.88-4.17a11.86,11.86,0,0,0-2-1,4.41,4.41,0,0,1-1.34-.73l.48.83c-.22.82-.23,1,0,.62l.11-.16c-.15.21.2-.22.21-.23a2,2,0,0,1,.69-.55,2.08,2.08,0,0,1,.81-.35s.51-.11.33-.08h.13c.23,0,.24,0,0,0l-.83-.48c.06-1.33,0-1.75-.26-1.25a2,2,0,0,1-.15.29c-.08.15-.17.31-.27.46a4.1,4.1,0,0,1-.55.73,6.8,6.8,0,0,1-1.58,1.35A1.92,1.92,0,0,0,43,65.84a1.89,1.89,0,0,0,2.56.67,11.2,11.2,0,0,0,3.36-3.25,4.78,4.78,0,0,0,1-2.31,2.34,2.34,0,0,0-1.74-2.45,5.88,5.88,0,0,0-4.34,1.08c-1.26.87-2.88,2.48-2.45,4.17S44,66,45.11,66.54a8.13,8.13,0,0,1,.83.43c.5.29,0-.06.2.14l.07.06q.23.26.06.06s0-.29,0-.26c0-.49.34-.6.71-.73.74-.26.5,0,.3-.28a3,3,0,0,0-.55-.38,12.56,12.56,0,0,1-1.28-1.2c-.58-.64-1-1.43-1.95-1.71a2.22,2.22,0,0,0-2.61,1.1,8.43,8.43,0,0,0-.52,2.87,4.37,4.37,0,0,1-.09.5c0,.07-.21.53-.08.27a2.17,2.17,0,0,1-.19.33c.22-.3-.24.26,0,0-.31.32-.1-.08,0,0s1,.27,1.05.77c0,0,0,.29-.05.26s.31-.54.32-.57c1-1.64,2-3.26,3-4.89a1.89,1.89,0,0,0-1.62-2.82l-3.78,0-1.82,0H35.8a.46.46,0,0,1,.43.19l.48,1.82c-.11.29-.17.14,0,.11-.27.06.22,0,0,0,0,0,.1,0,.15,0a1,1,0,0,1,.33,0,6.39,6.39,0,0,1,2.14.94A8.59,8.59,0,0,0,41.7,64.9a2.63,2.63,0,0,0,2.92-1.35,4.85,4.85,0,0,0,.32-2.69c0-.92-.11-1.84-.16-2.77A4.66,4.66,0,0,0,44,55.28a2.76,2.76,0,0,0-3-.93,2,2,0,0,0-1.37,1.81,28.34,28.34,0,0,0,.53,5.51A1.89,1.89,0,0,0,42.4,63a1.91,1.91,0,0,0,1.31-2.31Z"/></g><g class="cls-6"><path class="cls-7" d="M132,53.68a3.54,3.54,0,0,1-2-.33,7.56,7.56,0,0,0-1.25-.29,4.08,4.08,0,0,0-1-.1h-.25a1.25,1.25,0,0,1,.57.32l.25.94c-.13.77-.47,1.14-1,1.12h.17l.71,0c.51.05,1,.11,1.51.19a8.06,8.06,0,0,1,1.29.3s.11.06.1,0-.06-.06.08.08a.8.8,0,0,1-.18-.23l3.13-1.82a5.4,5.4,0,0,1-1-2.14c-.12-.44-.22-.89-.3-1.33l-.12-.68c0-.15,0-.3-.07-.45a.75.75,0,0,1-.11.52l-.68.67-.16.07h-1c-.26,0-.32-.38-.21,0a9.3,9.3,0,0,1,.35,1.25,5.58,5.58,0,0,1-.08,1.95,1.89,1.89,0,0,0,3.13,1.82,13.74,13.74,0,0,1,1.78-1.45,7.55,7.55,0,0,1,1-.64h0c-.15,0-.16-.05,0,0s.13,0-.25-.19a1,1,0,0,1-.2-.8s.08-.23.09-.2a.1.1,0,0,1,.07,0l-.23.07-.36.06A9.94,9.94,0,0,0,133,53a2.9,2.9,0,0,0-2,1.95c-.28,1.23.48,2.15,1.23,3l1.89,2.15c.27.32.57.62.82,1s.13.36.21,0l1.8-1.38c.46.16.54.16.25,0,.13.1.11.07-.06-.08s-.13-.15-.32-.43a17.24,17.24,0,0,0-1.07-1.47A11.45,11.45,0,0,0,133,55.35,1.9,1.9,0,0,0,130.14,57a9.09,9.09,0,0,1-2.33,4.92l3.14.82c-.46-1.38.59-2.67,1.54-3.76a1.91,1.91,0,0,0,0-2.65,1.89,1.89,0,0,0-2.65,0c-1.79,2-3.45,4.58-2.51,7.41a1.89,1.89,0,0,0,3.13.83A13.16,13.16,0,0,0,133.89,57l-2.82,1.61A7.91,7.91,0,0,1,133.53,61,4.76,4.76,0,0,0,137,63.49a1.86,1.86,0,0,0,1.81-1.38c.42-1.72-.54-3-1.62-4.21l-1.5-1.72-.76-.86-.37-.43.11.08v1l-.42.58.21-.1c-.14,0,.31-.12.32-.12a6.3,6.3,0,0,1,.81-.19,7.63,7.63,0,0,0,2.39-.55,3.16,3.16,0,0,0,1.48-4.36,3.51,3.51,0,0,0-4.59-1,14.32,14.32,0,0,0-3.7,2.72l3.13,1.82a9,9,0,0,0-.18-5,4.78,4.78,0,0,0-1.4-2.29,2.41,2.41,0,0,0-2.82-.23c-1.66,1-.95,3.4-.59,5a10,10,0,0,0,2.14,4.34c1.28,1.46,3.58-.1,3.14-1.82s-2.24-2.51-3.91-2.8-4.1-.89-5.46.48a2.43,2.43,0,0,0,0,3.3c.78.87,1.72.88,2.8,1,.55.06,1.43.42,2.11.59a5,5,0,0,0,2.85,0,1.93,1.93,0,0,0,1.3-2.31,1.89,1.89,0,0,0-2.3-1.31Z"/></g><g class="cls-6"><path class="cls-7" d="M53.52,10c.37-.07-.12,0-.19,0,.28,0,.09,0-.07-.05s-.34-.15-.11,0l-.47-.25c-.55-.33-1.07-.71-1.63-1-1.49-.87-3.62-1.17-4.64.58a2.71,2.71,0,0,0,.44,3.1,3.8,3.8,0,0,0,2.3,1.07,27.74,27.74,0,0,0,5.54.34,1.91,1.91,0,0,0,1.87-1.88,1.89,1.89,0,0,0-1.87-1.87A4.05,4.05,0,0,0,51,13.09a12.15,12.15,0,0,0-.27,2.48,4.19,4.19,0,0,1,0,.5c0,.19.05-.13,0,.18a3.56,3.56,0,0,1-.15.56c.12-.28-.19.24,0,0l3,2.28,1.08-2.28c.14-.32.35-.65.46-1a1.37,1.37,0,0,1,.13-.2l-.35.35c-.49.28-.86.29-1.14,0-.1-.08,0-.05.15.12,1.32,1,2.63,2.13,3.94,3.19a1.89,1.89,0,0,0,2,.39A1.85,1.85,0,0,0,60.9,18a6.32,6.32,0,0,0-2-4.06,16.24,16.24,0,0,0-1.79-1.4,13.43,13.43,0,0,1-1.5-1.16l-.38,3A13.62,13.62,0,0,1,60,12L58.5,8.55A18.17,18.17,0,0,1,56.11,10l-.58.28-.35.16c-.19.08-.42.13-.61.23-.61.16-.26.36,1.07.6.09.19.1.21,0,.05-.19-.94-.56-1.85-.76-2.78a23.58,23.58,0,0,1-.45-2.69l-3.2,1.33c.35.38-.09-.23.18.21.08.14.16.27.23.41s.17.39.08.16a5.05,5.05,0,0,1,.18.55c.09.31.16.63.22,1s.07.38.1.58c.06.39,0-.16,0,.27a1.91,1.91,0,0,0,1.87,1.87c.91,0,2-.83,1.88-1.87-.28-2.11-.64-4.15-2.13-5.78a1.86,1.86,0,0,0-2.05-.39,1.84,1.84,0,0,0-1.15,1.71,32.08,32.08,0,0,0,.66,4q.23,1,.51,1.89a4.51,4.51,0,0,0,.93,2c1.33,1.3,3,.53,4.4-.11a18,18,0,0,0,3.18-1.84A1.88,1.88,0,0,0,59,8.36a16.47,16.47,0,0,0-5.65,2.7A1.9,1.9,0,0,0,52.92,14c.85.78,2,1.53,2.84,2.16a7.23,7.23,0,0,1,.59.53l.27.28c.21.23-.12-.17.07.08a2.66,2.66,0,0,1,.21.33s.18.33.12.2.16.68.13.38l3.2-1.33-2.63-2.13c-.88-.71-1.83-1.78-3-2.06a2.79,2.79,0,0,0-3.13,1.69c-.5,1-1,2-1.44,3a1.89,1.89,0,0,0,.48,2.42,1.87,1.87,0,0,0,2.47-.14,6.7,6.7,0,0,0,1.32-4.21c0-.31,0-.63,0-.94,0,.2,0-.07,0-.12s.19-.54.09-.33.08-.12.1-.15.06-.1,0,0l.12-.12c-.31,0,.08.06,0,0s-.2.08-.07,0,.1,0-.09,0V9.94a27.47,27.47,0,0,1-3.85-.11l-.7-.1a4.81,4.81,0,0,0-.79-.16.59.59,0,0,1,.2.12c.48.54.38,1.13-.3,1.78-.61.11-.75.16-.41.15-.26,0-.28,0-.06,0s.18.06,0,0l.32.17.63.38c.41.27.81.55,1.23.79a5.26,5.26,0,0,0,3.57.66,1.88,1.88,0,0,0,1.31-2.3A1.9,1.9,0,0,0,53.52,10Z"/></g><g class="cls-6"><path class="cls-7" d="M65.13,157.35c-1.6-.71-3.19-1.5-4.83-2.11s-4,0-4.56,2c-1,3.6,4.47,5.18,7,5.62v-3.62a6.18,6.18,0,0,0-3.44,3c-.67,1.4-1,3.41-.18,4.82,1.16,1.91,3.91,1,5.11-.36a7.43,7.43,0,0,0,1.45-5.05l-2.82,1.62a29.16,29.16,0,0,0,5.35,2.84,1.82,1.82,0,0,0,1.44-.18,3.72,3.72,0,0,0,1.6-3,4.37,4.37,0,0,0-1.08-2.87A6.54,6.54,0,0,0,68,158.49c-.43-.2-.88-.37-1.31-.58-.18-.09-.37-.18-.54-.28a2.5,2.5,0,0,1-.35-.21l-.11-.07-.83,3.13a10.54,10.54,0,0,1,3.79-.73c1.56-.05,3.26-.88,3.21-2.68A1.93,1.93,0,0,0,70,155.2a12.22,12.22,0,0,0-5.77.82,4.5,4.5,0,0,1-.48.16l-.25.07c-.14,0-.11,0,.1,0-.19,0-.21,0-.06,0a.74.74,0,0,1,.55.29c.22.23.22.71.23.34,0-1.06.08-2.12.18-3.18l-3.49.95a7.61,7.61,0,0,1,1.39,2.73c.07.28.13.55.18.83s.05.27,0,.12c0,.14,0,.28,0,.42a5.57,5.57,0,0,0,.23,1.57,2.53,2.53,0,0,0,3.72,1.49c1.09-.66,2.11-1.53,3.15-2.28a1.92,1.92,0,0,0,.67-2.56,1.89,1.89,0,0,0-2.57-.67l-2.6,1.88a2.56,2.56,0,0,0-.54.39,1.41,1.41,0,0,1,1.65.43c.09.21.11.25.07.11a1.6,1.6,0,0,1,0-.21q0,.38,0,.06c0-.21,0-.42,0-.63a10.94,10.94,0,0,0-2.11-5.57,1.87,1.87,0,0,0-3.49.94,13.43,13.43,0,0,0-.09,4A2.86,2.86,0,0,0,63.56,160a13.35,13.35,0,0,0,3.07-.85A8.79,8.79,0,0,1,70,159l-1.88-1.88a1.45,1.45,0,0,1,.56-1c.22-.1.23-.11,0-.05l.19,0h-.3a14.52,14.52,0,0,0-1.48.09,12.86,12.86,0,0,0-3.24.77,2,2,0,0,0-1.31,1.31A1.88,1.88,0,0,0,63,160a25.45,25.45,0,0,0,3.75,2.09l.33.2c.43.29-.15-.17.21.19.06.06.19.21.07.05,0,0,.24.44.15.23s0,.19,0,.24c-.1-.54,0,.2,0-.11s0,.23-.06.21.28-.37.31-.39l1.44-.19c-.6-.25-1.48-.69-2.17-1.06s-1.54-.9-2.28-1.41A1.89,1.89,0,0,0,62,161.67a13.3,13.3,0,0,1-.06,1.41q0,.19,0,0l-.09.42c0,.06-.23.57-.1.32,0,0-.31.48-.1.22,0,.05-.39.38-.15.19a1.75,1.75,0,0,1-.29.18l.12-.05c-.21.05-.22.06,0,0a.85.85,0,0,1-.32,0l.94.26-.13-.06.67.67c0,.18,0,.17,0,0,0,.21,0,.21,0,0,0-.08,0-.77,0-.35a2.78,2.78,0,0,1,.11-.5c0-.11.07-.22.11-.33-.08.18-.08.17,0,0a5.8,5.8,0,0,1,.36-.59c-.19.25.09-.08.15-.14s.17-.16.25-.24c-.15.12-.14.11,0,0s.67-.33.32-.19A2,2,0,0,0,65.15,161a1.88,1.88,0,0,0-1.37-1.81,14,14,0,0,1-3-.82,9.28,9.28,0,0,1-1.12-.54l-.31-.2c.12.08.12.08,0,0s-.09-.08,0,0q-.18-.28,0,0a.9.9,0,0,1-.08.66l-.31.33c-.2.06-.19.06,0,0a.25.25,0,0,1-.22,0,8.86,8.86,0,0,1,1.26.49l3.19,1.41a1.94,1.94,0,0,0,2.57-.67,1.89,1.89,0,0,0-.67-2.57Z"/></g><g class="cls-6"><path class="cls-7" d="M85.21,242.24A7.27,7.27,0,0,1,84,239.15c0,.19,0-.09,0-.14s0-.28,0-.42a6,6,0,0,1,0-.85,3.11,3.11,0,0,1,0-.43c0-.65,0,.13,0-.24a2.57,2.57,0,0,0,.08-.38c0-.1,0-.1,0,0A1.71,1.71,0,0,1,84,237l-.83.48h-.6l-.82-.49c.32.26-.18-.25-.14-.31s.09.4.1.44c0,.33.1.66.14,1l.33,2.23.32,2.11a9.88,9.88,0,0,1,.22,1.86l.26-.95-.09.16.67-.67-.13.07.95-.26q-.31,0,0,0l-.43-.15-.64-.23c-.42-.16-.77-.32-1.22-.54a22.14,22.14,0,0,1-2.75-1.6l-1.45,3.43a15.52,15.52,0,0,1,3.75,1.6,4.09,4.09,0,0,0,.48.29c.74.36-.62-1-.37-1.14a5.1,5.1,0,0,0-.38.88l-1,2.26,3.5.95c0,.3.08-.1,0,0s.18-.21,0,0,.23-.2,0,0a1.61,1.61,0,0,1,.31-.19c-.18.08.22,0,.27-.06.29-.06-.23,0,.29,0,.28,0,.74,0,.89,0a3.28,3.28,0,0,1,2.48,1.18l2.65-2.65-2.2-2.06-1.1-1-.46-.43-.27-.25c-.16-.16-.17-.17,0,0l.26.94c-.76.91-.91,1.22-.45.94l.22-.11.66-.33,1.34-.63q1.24-.56,2.52-1.05a1.92,1.92,0,0,0,1.3-2.3,1.87,1.87,0,0,0-2.3-1.31c-1.3.5-2.59,1-3.86,1.63s-2.68,1-3.09,2.36c-.5,1.6.85,2.62,1.87,3.57l2.93,2.74a1.87,1.87,0,0,0,2.65-2.65c-1.31-1.66-3.64-2.26-5.67-2.32-2.5-.06-4.84,1.42-5,4.06a1.87,1.87,0,0,0,3.49.94l1.27-2.94a4.64,4.64,0,0,0,.59-2,2.43,2.43,0,0,0-1-1.87A17.1,17.1,0,0,0,78.89,240a1.87,1.87,0,0,0-2.21,1.09,1.89,1.89,0,0,0,.76,2.34A24.26,24.26,0,0,0,83,246.14a3.33,3.33,0,0,0,1.65.22,2.2,2.2,0,0,0,1.77-1.57,4.67,4.67,0,0,0-.09-2l-.23-1.61L85.57,238a8.15,8.15,0,0,0-.7-3.06,2.33,2.33,0,0,0-3.81-.3,5.24,5.24,0,0,0-.82,3A11.09,11.09,0,0,0,82,244.14a1.93,1.93,0,0,0,2.57.67,1.9,1.9,0,0,0,.67-2.57Z"/></g><g class="cls-3"><path class="cls-4" d="M36.77,180.05a26,26,0,0,1,.36-7.89,11,11,0,0,1,.56-1.65,5.13,5.13,0,0,1,.82-1.29l.2-.18c-.12.09.23-.11.13-.08a8.13,8.13,0,0,1,.91-.22l2.13-.43-2.12-2.75c-1,1.88-1.3,4-2.14,6A28.62,28.62,0,0,1,34.1,177l3.24,1.89A27.65,27.65,0,0,0,40,171.64l-3.69-.5a9.69,9.69,0,0,1-1.82,5.71,1.86,1.86,0,0,0,.48,2.42,1.89,1.89,0,0,0,2.46-.15c2.69-2.38,3.77-6,4.38-9.4a1.92,1.92,0,0,0-1.31-2.3,1.89,1.89,0,0,0-2.31,1.3A24.7,24.7,0,0,1,37,173.21a8.53,8.53,0,0,1-2.24,3.26l3,2.27a13.26,13.26,0,0,0,2.33-7.6,1.88,1.88,0,0,0-3.68-.49A23.94,23.94,0,0,1,34.1,177a1.88,1.88,0,0,0,3.24,1.89,29.57,29.57,0,0,0,3.51-5.49c.87-1.92,1.17-4.17,2.15-6a1.9,1.9,0,0,0-2.12-2.75c-1.68.33-3.45.49-4.8,1.66a9,9,0,0,0-2.37,4.13c-1,3.07-.86,6.38-.69,9.56a1.88,1.88,0,0,0,3.75,0Z"/></g><g class="cls-3"><path class="cls-4" d="M27.59,193.1a11.76,11.76,0,0,1-7.16-11.43l-2.82,1.62a12.65,12.65,0,0,1,7.69,11l1.87-1.87-.26,0,.95.26c-.49-.22-.87-1-1.21-1.44L24.93,189l-3.31-4.41-2.56,2.56c2,1,2.92,3.21,4.1,5a9.25,9.25,0,0,0,6.72,4.52c1.8.26,3.62.43,5.43.64l2.84.33a10.91,10.91,0,0,0,2.61.2,2.87,2.87,0,0,0,2.47-3.07,3.62,3.62,0,0,0-3-3.23,19.17,19.17,0,0,0-5.76-.08,34.91,34.91,0,0,0-6.33,1.16c-2.32.66-1.33,4.28,1,3.62a29.19,29.19,0,0,1,5.33-1c1.6-.15,3.18,0,4.77,0a1.18,1.18,0,0,0,.37.09.76.76,0,0,1-.13-.23c1.37-1,.81-.88.18-.95l-2.83-.33-5.45-.63a6.37,6.37,0,0,1-3.66-1.22,11.13,11.13,0,0,1-1.93-2.59c-1.27-2.07-2.56-4.29-4.85-5.38a1.93,1.93,0,0,0-2.27.29,1.87,1.87,0,0,0-.29,2.27l4.23,5.64c1.22,1.64,2.3,3.92,4.55,4.13a1.9,1.9,0,0,0,1.88-1.88,16.31,16.31,0,0,0-9.55-14.27,1.91,1.91,0,0,0-2.82,1.62,15.37,15.37,0,0,0,9,14.67,1.94,1.94,0,0,0,2.57-.67,1.89,1.89,0,0,0-.68-2.57Z"/></g><g class="cls-3"><path class="cls-4" d="M23.05,208.11a52.56,52.56,0,0,0-2.78-4.69,14,14,0,0,0-3.35-4,4.08,4.08,0,0,0-4.39-.25,3.28,3.28,0,0,0-1.36,4.3c1.3,2.72,4.17,5,6.81,6.36a18.81,18.81,0,0,0,9.74,1.88c3.45-.17,7.36-.38,9.45-3.55a1.88,1.88,0,0,0-.29-2.27c-1.87-1.6-4.38-.79-6.54-.3a46.25,46.25,0,0,0-7.19,2.29,1.94,1.94,0,0,0-1.31,2.31,1.89,1.89,0,0,0,2.31,1.31,46.44,46.44,0,0,1,5.51-1.88c.9-.24,1.81-.45,2.73-.64l1.27-.24a2,2,0,0,1,.54-.07c.4,0,.41,0,0-.13l-.3-2.27c-1.26,1.92-5.08,1.67-7,1.73a14.37,14.37,0,0,1-8.08-2,13.54,13.54,0,0,1-3.08-2.57,18,18,0,0,1-1.17-1.55c.09,0-.2.66-.2.54l.27-.07c-.22,0-.23,0,0,0,1.1.58,1.86,2.07,2.52,3.06,1,1.46,1.85,3,2.67,4.52,1.12,2.14,4.36.25,3.24-1.89Z"/></g><g class="cls-3"><path class="cls-4" d="M18.91,225.92c-2-.24-4.41.52-6.35-.22-1.69-.64-2.57-2.52-3.36-4l-1.62,2.82c2.06-.25,3.87.74,5.63,1.7a36.71,36.71,0,0,1,5.07,3.3,2,2,0,0,0,2.27.29A47.52,47.52,0,0,0,26,226.11c1.69-1.16,3.76-2.37,5.89-2L31.08,221c-4,3.82-11.62,7.79-16.8,3.85a1.89,1.89,0,0,0-2.57.67,1.92,1.92,0,0,0,.67,2.56c6.57,5,16.18.47,21.35-4.43a1.89,1.89,0,0,0-.83-3.14,11,11,0,0,0-7.71,1.68c-2.25,1.35-4.18,3.18-6.53,4.38l2.27.3a43.29,43.29,0,0,0-6.21-4.1c-2.19-1.16-4.6-2.31-7.14-2A1.9,1.9,0,0,0,6,223.58c1.14,2.13,2.48,4.35,4.76,5.4,2.63,1.21,5.43.36,8.19.69a1.89,1.89,0,0,0,1.88-1.88,1.92,1.92,0,0,0-1.88-1.87Z"/></g><g class="cls-3"><path class="cls-4" d="M22.43,244.65c-1.9-.25-3.5-1.87-5.11-2.79A8,8,0,0,0,11,240.77a1.86,1.86,0,0,0-1.31,1.31c-.56,3,3.32,4,5.54,4.68,2.53.75,5.72,1.35,8.26.33,2.34-.94,4.15-3.13,6.29-4.46a11.17,11.17,0,0,1,7.48-2l-1.62-2.83c-2.9,4.92-8.76,7-14.2,7.27l.5,3.68c3.85-1.28,7.66-2.7,11.4-4.27a1.92,1.92,0,0,0,1.31-2.31c-1.29-4.59-6.79-.27-9.16.8-3,1.35-6.53,2-9.37,0-1.71-1.23-4,1.63-2.27,2.94,4.91,3.85,10.86,2.36,16.08,0L28,242.62a20.46,20.46,0,0,1-6.69,2.55c-1,.19-2.32.56-3.2,0a34.11,34.11,0,0,1-3.2-2.7c-1.83-1.55-4.5,1.09-2.65,2.65a42.9,42.9,0,0,0,4,3.29c1.48,1,3.14.85,4.82.61a23.69,23.69,0,0,0,8.85-3.13c2.12-1.25.26-4.21-1.89-3.24-3.4,1.55-8.19,3.22-11.54.6l-2.27,2.95a11.4,11.4,0,0,0,9,1.49A20.47,20.47,0,0,0,27.78,246c.79-.37,1.57-.79,2.34-1.21a7.16,7.16,0,0,1,2.31-1.08h-1l-.4-.56,1.31-2.31q-5.62,2.35-11.41,4.27c-1.92.64-1.72,3.8.5,3.69,6.78-.36,13.85-3,17.43-9.12a1.89,1.89,0,0,0-1.61-2.82c-4.65-.58-8.87,1.89-12.38,4.67a16.65,16.65,0,0,1-2.49,1.94,5.7,5.7,0,0,1-3.17.28,17.69,17.69,0,0,1-3.43-.76,13.93,13.93,0,0,1-1.63-.61l-.81-.38c-.43-.23-.52-.28-.28-.14l.19,1.44.05-.24L12,244.39c1.91-.57,3.66.83,5.17,1.83a12.15,12.15,0,0,0,5.26,2.18,1.89,1.89,0,0,0,1.88-1.88,1.92,1.92,0,0,0-1.88-1.87Z"/></g><g class="cls-3"><path class="cls-8" d="M124.67,141.67a19,19,0,0,1,2.42-1.54l.64-.32c1-.52-.68.23,0,0,.46-.16.9-.33,1.36-.47s.91-.26,1.38-.37l.7-.14c.15,0,.95-.22.22-.06s.06,0,.23,0l.72-.06c.54,0,1.08,0,1.61,0s1,0,1.44.09c.68,0,0,.06-.26-.05a4.2,4.2,0,0,0,.71.11,20.15,20.15,0,0,1,2.77.73l.68.24c.64.24,0-.08-.21-.08.4,0,1.07.52,1.44.72s.82.49,1.21.76c.11.07.8.51.22.13s.27.24.34.29L141,136.75a119.14,119.14,0,0,0,.41,35.42l6.15-6.15c-4.1-1.4-8.34-2.6-12.33-4.29.93.4-.38-.2-.6-.31-.46-.23-.9-.48-1.34-.74l-.73-.48s-.61-.48-.19-.14-.14-.13-.18-.17c-.27-.25-.54-.49-.81-.75-1-.93-1.84-1.94-2.71-2.95-.39-.45-.77-.91-1.14-1.36l-.64-.8c-.12-.14-.93-1.22-.46-.56s-.25-.34-.37-.49-.45-.6-.67-.91c-.45-.62-.9-1.24-1.33-1.88a55.8,55.8,0,0,1-4.66-8.07c-.06-.14-.29-.64,0,0s0-.06-.08-.23c-.14-.36-.27-.73-.39-1.09a17.33,17.33,0,0,1-.52-2c0-.17-.06-.34-.09-.51-.13-.54,0,1.14.08.6,0-.31,0-.64,0-1s.12-1.36,0-.34.06-.1.14-.37L113.62,141c.79-.07-1.41-.41-.78-.13a3.6,3.6,0,0,0,.44.12c.5.16,1,.63-.32-.16a4.59,4.59,0,0,0,.6.27c1.11.53,2.19,1.12,3.27,1.7a33.78,33.78,0,0,0,7,3.31,6.92,6.92,0,0,0,2,.26c1.53-.21,1.77-.24.7-.09h.36a3.2,3.2,0,0,1-2.67-1.55c-.27-.71-.31-.81-.14-.28.38,2.15.85,4.29,1.22,6.45.19,1.13.37,2.27.54,3.4.08.49.15,1,.22,1.46,0,.18.29,2.09.16,1.11q.44,3.42.77,6.85l9.32-2.53a47.21,47.21,0,0,0-3.2-4.25c-.49-.62-1-1.23-1.49-1.84l-.71-.87a5.92,5.92,0,0,1-.46-.59c.14.3.46.61.1.12a27.83,27.83,0,0,1-2.58-4.06,3.46,3.46,0,0,1-.2-.45c.06-.05.32,1,.2.45a10.08,10.08,0,0,0-.31-1c0-.16-.1-.7,0,.09s0,.21,0,.09c.09-.56.06-.57-.3.78-.2.78-.61,2.15-1.59,2.42a3,3,0,0,0,.55-.31c.67-.4-1.09.41-.29.13l1.74-.64a9.5,9.5,0,0,0,4.58-2.89c.07-.09,1.25-1.56.31-.52.08-.08.46-.58,0-.1s-.11.06.09,0a6.83,6.83,0,0,1-.85.25c-.57.16-.2,0,.05,0a2.82,2.82,0,0,1-1.37-.38c.65.38-.29-.2-.28-.29s.28.28.32.32c.33.39-.31-.41-.31-.41s.5.91.55,1c.27.45-.19-.38-.18-.42s.14.38.17.48c.13.42.25.85.35,1.29,1.11,4.76,2,9.6,2.93,14.39a5,5,0,0,0,9.82-1.33q.36-12.45,0-24.91a5,5,0,1,0-10,0q.33,12.47,0,24.91l9.83-1.33c-1-4.93-1.78-10-3-14.87a13,13,0,0,0-3.36-6.19,8.2,8.2,0,0,0-9.35-1.33,9.16,9.16,0,0,0-3.09,2.65,9.33,9.33,0,0,0-.69,1c-.37.65.74-.76.9-.91.84-.74-.21,0-.34.12,0,0,1.26-.49.52-.22l-.49.18L124,142a20.17,20.17,0,0,0-2.92,1.21c-5.1,2.79-3.42,8.84-1,12.89a50.5,50.5,0,0,0,4.36,5.93c.68.84,1.38,1.68,2,2.53.11.14.59.73.14.16s.1.14.2.28c.3.4.58.82.86,1.24a5.1,5.1,0,0,0,5.64,2.3c2-.64,3.89-2.6,3.67-4.82q-.78-8-2.13-16c-.44-2.53-.62-5.5-1.86-7.79a7,7,0,0,0-2.91-2.9,6.83,6.83,0,0,0-3.2-.79c-.64,0-3.45.17-1.15.11-.55,0,1.59.44.73.09-.2-.08-.43-.14-.63-.21-.77-.24,1.3.61.35.15l-.73-.35c-1.3-.63-2.56-1.34-3.83-2s-2.26-1.22-3.43-1.75c-1.34-.61-3-1.42-4.58-1.28a5.23,5.23,0,0,0-4.82,3.67,15.35,15.35,0,0,0,.68,9.53,47.22,47.22,0,0,0,4.87,9.55,92.85,92.85,0,0,0,6.41,8.61c2.37,2.84,4.91,5.62,8.19,7.42a49.54,49.54,0,0,0,8,3.21l7.94,2.7a5,5,0,0,0,4.86-1.29,5.25,5.25,0,0,0,1.29-4.86l-.27-1.67c0-.26-.23-1.75-.12-.83-.14-1.12-.27-2.24-.37-3.36q-.34-3.5-.46-7a109,109,0,0,1,.42-13.76c.1-1,.21-2.09.34-3.13,0-.13.14-1.13.07-.53-.11.84.15-1.33.15-1.15a5.12,5.12,0,0,0-1.74-3.76,19.32,19.32,0,0,0-4.95-3.24,24.88,24.88,0,0,0-11.79-2.37A23.42,23.42,0,0,0,119.62,133c-2.09,1.56-3.37,4.39-1.79,6.84,1.33,2.07,4.6,3.46,6.84,1.79Z"/></g><g class="cls-3"><path class="cls-4" d="M109.83,224.34l-.94-1.22.32,1.22c.33-.9.69-1.78,1.1-2.64a4.63,4.63,0,0,1,1.08-1.86c.48-.34,1.26,0,1.76.17a4.54,4.54,0,0,0,2.45.09,1.26,1.26,0,0,0,0-2.41c-1.95-.6-3.84.25-5.52,1.19L112,220l0-.16-.17.63c.14-.26.6-.48.85-.65a5.9,5.9,0,0,1,1.24-.72,4.46,4.46,0,0,1,3,.1c1.62.49,3.87,1.09,4.26,3l1.84-1.42c-2.19-1.32-4.84-.86-7.22-.46a18.23,18.23,0,0,0-7.09,2.49l1.84,1.41a3.22,3.22,0,0,1,2.68-2.5c1.86-.49,3.89-.24,5.79-.5l-.66-2.41a26.17,26.17,0,0,0-6.61,2.29c-1.77.89-4.82,2.35-4.08,4.82a1.27,1.27,0,0,0,2.09.55,13.19,13.19,0,0,1,7.58-4.22,1.26,1.26,0,0,0,.87-1.54,1.28,1.28,0,0,0-1.54-.87,15.36,15.36,0,0,0-8.67,4.86l2.08.55c-.1-.34,1.12-1,1.49-1.2a22.73,22.73,0,0,1,2.35-1.22,23.44,23.44,0,0,1,5.1-1.61,1.25,1.25,0,0,0-.66-2.41c-2.19.3-4.46-.08-6.56.75a5.39,5.39,0,0,0-3.66,4c-.14,1,.82,2.07,1.83,1.41a16,16,0,0,1,6-2.16c1.81-.32,4.12-.88,5.79.13a1.26,1.26,0,0,0,1.83-1.41c-.63-3-4-4.28-6.67-4.92a6.4,6.4,0,0,0-4.47.43c-1.19.59-2.8,1.54-3,3-.12,1,1.13,1.5,1.88,1.08,1.08-.6,2.32-1.33,3.59-.94v-2.41a2.41,2.41,0,0,1-1.32-.14,6.79,6.79,0,0,0-1.73-.33,3.36,3.36,0,0,0-2.89,1.62,18.77,18.77,0,0,0-1.61,3.35c-.26.62-.77,1.46-.58,2.15a6.3,6.3,0,0,0,1.27,1.76,1.24,1.24,0,0,0,1.76,0,1.26,1.26,0,0,0,0-1.76Z"/></g><g class="cls-3"><path class="cls-4" d="M102.31,216.76A10.9,10.9,0,0,0,97,213.65a12.35,12.35,0,0,0-6.71,1.06,10.44,10.44,0,0,0-4.39,4.39A16,16,0,0,0,83.74,225a1.27,1.27,0,0,0,.72,1.47,1.23,1.23,0,0,0,1.56-.51,11.37,11.37,0,0,1,2.73-3.68,15.85,15.85,0,0,1,3.67-2.19,11.51,11.51,0,0,1,4.19-1.46,11.15,11.15,0,0,1,4.81,1.27l.63-2.33c-1.67.19-3.35.39-5,.64a9.77,9.77,0,0,0-4.48,1.61c-1.24.91-2.22,2.1-3.54,2.92a12.33,12.33,0,0,1-4.35,1.63l1.22,2.09c1.36-1.71,3.32-2.72,5-4.06a22.46,22.46,0,0,0,4.48-5.28A1.26,1.26,0,0,0,94,215.25a22.49,22.49,0,0,0-5.2,2.39l1.71,1.71c1-1.92,3.5-1.88,5.4-1.88a1.25,1.25,0,0,0,0-2.5c-2.83,0-6.07.34-7.56,3.12A1.26,1.26,0,0,0,90,219.8a20.06,20.06,0,0,1,4.6-2.14l-1.41-1.84a19.18,19.18,0,0,1-4.27,4.92c-1.67,1.24-3.51,2.27-4.83,3.92a1.26,1.26,0,0,0,1.22,2.09,15.28,15.28,0,0,0,7.86-4.25c2.32-2.16,5.87-2.12,8.86-2.46a1.32,1.32,0,0,0,1.21-.92,1.25,1.25,0,0,0-.58-1.41,15.73,15.73,0,0,0-5.61-1.61,12,12,0,0,0-5.38,1.55,20.48,20.48,0,0,0-4.49,2.65,13,13,0,0,0-3.34,4.37l2.29,1a14.23,14.23,0,0,1,1.57-4.78A9.17,9.17,0,0,1,91,217.1a10.16,10.16,0,0,1,2.29-.72,8.07,8.07,0,0,1,2.89-.33,8.08,8.08,0,0,1,4.36,2.48c1.17,1.1,2.94-.66,1.77-1.77Z"/></g><g class="cls-3"><path class="cls-9" d="M102.23,190.49a45.23,45.23,0,0,0-6.9-2.87c-2.28-.67-4.66-.89-7-1.33a11.54,11.54,0,0,1-5.57-2.22c-1.13-1-2.12-2.41-1.75-4l-.64,1.1a8.82,8.82,0,0,1,11.38-.44,33.05,33.05,0,0,1,5.45,5.88,57,57,0,0,1,4.79,7.24l2.16-3.76c-1.83,0-3.41-2.51-4.57-3.69a49.94,49.94,0,0,0-5.67-5c-3.89-2.92-8.57-5-13.52-4.66-2,.12-3.49,2.73-1.77,4.26a159.92,159.92,0,0,0,20.9,15.75c2,1.28,4-.83,3.68-2.82a25.35,25.35,0,0,1,9.56-23.4l-4.26-1.76a71.84,71.84,0,0,1,0,13.28c-.3,3.1-1.38,7.15-4.7,8.28l3.08,1.75a45.66,45.66,0,0,1,1.15-17.57l-4.18,1.11c2.25,2.57,1.17,6.67.29,9.58-.41,1.34-.7,3.4-2.15,4-1.69.72-3.61.75-5.32,1.46-8.18,3.37-11,12.37-17.62,17.53-1.66,1.29-.31,4.5,1.76,4.27,11.38-1.27,18.8-10.36,23.68-20,1.21-2.4-2-5.27-3.93-3a139.28,139.28,0,0,1-16.15,15.61H88c-.43-.51.55-2,.85-2.48a15,15,0,0,1,3-3.1,17,17,0,0,1,7.85-3.39L96.6,194.4a18.82,18.82,0,0,0,5.14,7.37,2.55,2.55,0,0,0,3.54,0,2.52,2.52,0,0,0,0-3.53,4.87,4.87,0,0,1-1.47-2.06c-.86-2.52-5.1-2.31-4.91.66.32,4.91,3.55,8.58,7.44,11.28,3.69,2.56,8.06,4.12,11,7.6a2.51,2.51,0,0,0,4.18-1.1,16.67,16.67,0,0,0-3.24-13.37c-2.88-3.86-6.83-6.61-10.89-9.13-2.38-1.49-5.15,2-3,3.92a51.8,51.8,0,0,1,10.5,13.2l3.42-3.42-15-11.54.89,3.42c2.18-3.52,6.48-4.82,10.29-5.72,3.62-.87,10.15-2.86,12.27,1.55l1.5-3.67a43,43,0,0,1-18.07,2.68l.66,4.91a78.26,78.26,0,0,0,12-3.44,2.51,2.51,0,0,0-.67-4.91,17.85,17.85,0,0,0-5.43.7,5.28,5.28,0,0,1-3,0,1.16,1.16,0,0,1-.65-.48c.12.19,0,0,0-.17,0,.29-.07.13.09,0a5.14,5.14,0,0,1,.91-.57,8.57,8.57,0,0,1,1.56-.47,19.45,19.45,0,0,1,9.28.22c2.13.68,4.4,2.5,4.58,4.87a2.56,2.56,0,0,0,2.5,2.5,2.52,2.52,0,0,0,2.5-2.5,10.76,10.76,0,0,0-5.15-8.27c-3.12-2-7-2.36-10.64-2.15-3.11.19-6.83.49-9.12,2.9a5.31,5.31,0,0,0,1.21,8.26,8.05,8.05,0,0,0,5,1.09c2.11-.24,4.15-1.09,6.29-.89l-.66-4.91a79.4,79.4,0,0,1-12,3.44c-2.9.59-2,4.73.67,4.91a46.48,46.48,0,0,0,19.4-2.86,2.55,2.55,0,0,0,1.49-3.67,9.51,9.51,0,0,0-6.84-4.92c-3.47-.65-7,.14-10.37.9-5.4,1.22-10.94,3.27-14,8.19a2.56,2.56,0,0,0,.89,3.42l15,11.54a2.52,2.52,0,0,0,3-.39,2.57,2.57,0,0,0,.39-3,56,56,0,0,0-11.28-14.21l-3,3.92c5.67,3.53,13.46,9.08,11.83,16.86l4.18-1.1c-2.82-3.3-6.78-5.15-10.42-7.35-2.88-1.73-6.35-4.34-6.59-8l-4.91.67a9.88,9.88,0,0,0,2.75,4.26l3.54-3.53a13.66,13.66,0,0,1-3.86-5.17,2.61,2.61,0,0,0-3.07-1.75A21.32,21.32,0,0,0,87.15,197c-3.07,2.95-6,7.76-2.69,11.62a2.55,2.55,0,0,0,3.54,0,139.11,139.11,0,0,0,16.14-15.6l-3.92-3c-3.93,7.74-9.93,16.43-19.36,17.48l1.77,4.26c5.56-4.31,8.13-11.66,14.1-15.47a12.58,12.58,0,0,1,4.31-1.66,10.56,10.56,0,0,0,4.91-2,10,10,0,0,0,2.6-4.66,33.72,33.72,0,0,0,1.28-4.73c.71-4,.37-8-2.39-11.14a2.52,2.52,0,0,0-4.18,1.1,51.87,51.87,0,0,0-1.15,20.23,2.49,2.49,0,0,0,3.07,1.74c4.68-1.6,7.28-6,8.06-10.67a63.54,63.54,0,0,0,.26-15.71,2.54,2.54,0,0,0-4.27-1.77,30.24,30.24,0,0,0-10.86,28.26l3.68-2.83a151.63,151.63,0,0,1-19.89-15l-1.77,4.27c4.59-.28,8.66,2,12.08,4.85a64.13,64.13,0,0,1,5.09,4.94c1.8,1.9,3.86,3.53,6.59,3.56a2.52,2.52,0,0,0,2.16-3.76,62.4,62.4,0,0,0-8.7-11.91c-3.08-3.31-6.91-5.71-11.58-5.57a14.39,14.39,0,0,0-6.23,1.63,12.77,12.77,0,0,0-2.43,1.67,4.32,4.32,0,0,0-1.45,3.49c-.1,4.69,4,8.28,8.09,9.68a57.73,57.73,0,0,0,7.83,1.57,32.63,32.63,0,0,1,7.87,2.89,2.57,2.57,0,0,0,3.42-.9,2.52,2.52,0,0,0-.9-3.42Z"/></g><g class="cls-6"><path class="cls-10" d="M133.25,203.85a1.94,1.94,0,0,1,0-.24c0-.2,0-.11,0,.26.05-.14.06-.33.1-.47a2.91,2.91,0,0,1,.12-.39,2.09,2.09,0,0,1,.08-.23c-.14.33-.17.4-.09.23s.12-.24.19-.36a2.48,2.48,0,0,0,.26-.4l-.2.24.21-.24.34-.35L130,200.14c0,.51,0,1-.08,1.52s0-.09,0-.09,0,.26,0,.28q-.08.42-.18.84a14.51,14.51,0,0,1-.45,1.46c0,.08-.13.4,0,0l.07-.18c-.27.42.06.31,1-.32l1-.43c-.21-.06-.21-.06,0,0s.19.08,0,0l-.13,0a6.17,6.17,0,0,0-6.52.9,3.73,3.73,0,0,0-1.54,3.76,3.08,3.08,0,0,0,4.52,1.57,11.07,11.07,0,0,0,1.41-1l.29-.23-.08.06c.22-.15.44-.31.67-.45l.3-.16c.06,0,.33-.17,0,0s0,0,.1,0l.08,0c.22,0,.22,0,0,0l-.16,0h.25c.24,0-.21,0-.25,0l.27.08c-.35-.16-.44-.19-.28-.1s.09,0-.21-.18a1.06,1.06,0,0,0,.15.15c.22.19-.32-.47-.11-.11a1.4,1.4,0,0,1-.2-.74c0,.2,0,.19,0-.05a.84.84,0,0,1,.17-.5.72.72,0,0,0-.11.19c-.12.25.37-.38.05-.09l-.52.48a4.47,4.47,0,0,0-1.89,3.72,2.68,2.68,0,0,0,1.84,2.42c1.73.64,3.28-.69,4.08-2.08.44-.77.81-1.57,1.18-2.37s.72-1.55,1.15-2.29c.22-.38.47-.75.72-1.12s-.32.37-.11.13l.2-.24c.16-.18.32-.35.49-.52l-4.17-1.1c0,.07.12.56.06.13s0,.14,0,.14c.05-.37.06-.46,0-.27a2.17,2.17,0,0,1-.07.24c-.09.34,0-.07.07-.14-.17.13-.3.55-.42.74l-.15.2c-.11.15-.06.09.14-.18a1.64,1.64,0,0,1-.26.33,14,14,0,0,0-1.25,1.72,6.63,6.63,0,0,0-.78,2.56,2.48,2.48,0,0,0,.73,1.76,2.58,2.58,0,0,0,1.77.74,2.5,2.5,0,0,0,1.77-.74,2.87,2.87,0,0,0,.73-1.76c-.09.71,0,.2,0,0,.12-.43-.19.33,0,.08s.31-.52.48-.76-.23.28,0,0l.25-.33c.29-.36.58-.72.85-1.1a5.5,5.5,0,0,0,.91-4.76,2.53,2.53,0,0,0-4.18-1.1,14.32,14.32,0,0,0-2.82,4.18c-.33.67-.63,1.36-1,2-.17.33-.34.67-.52,1,0,.05-.33.55-.32.56.25-.29.28-.34.1-.14a1.84,1.84,0,0,1,1.67-.43l1.83,2.41c0-.29.09-.47,0,.08-.05.2-.21.48,0,.13s-.37.37,0,.07l.34-.32a6.45,6.45,0,0,0,1.47-1.61,4,4,0,0,0-1.11-5.22,5,5,0,0,0-5.35-.26,11.07,11.07,0,0,0-2,1.35c-.06.05-.48.36-.17.14s-.12.09-.19.13-.31.27-.39.26l.37-.17c1-.23,1.82.26,2.42,1.49v1.33c0,.34-.17.34,0,.1s-.4.41-.09.14a2.73,2.73,0,0,0,.25-.23c.15-.18-.51.31-.13.1l.3-.17c.22-.12.36,0-.16.06a3.79,3.79,0,0,0,.66-.18c-.07,0-.61.05-.26,0h.34c.45,0-.07,0-.19,0a1.21,1.21,0,0,0,.33.07c.4.12,0,0-.15-.08a2.43,2.43,0,0,0,.6.26,3.36,3.36,0,0,0,1.5.34,3.25,3.25,0,0,0,2.72-1.66,9.63,9.63,0,0,0,.78-2.1,16.06,16.06,0,0,0,.57-4.25,2.51,2.51,0,0,0-4.27-1.77,8.06,8.06,0,0,0-2.46,5.48,2.52,2.52,0,0,0,2.5,2.5,2.56,2.56,0,0,0,2.5-2.5Z"/></g><g class="cls-6"><path class="cls-10" d="M139,213.69c.72-.36,1.43-.74,2.14-1.12l1.08-.61a6,6,0,0,0,1.39-.92,2.75,2.75,0,0,0,.41-3.3,3,3,0,0,0-2.55-1.46,3.36,3.36,0,0,0-1.87.53,5.79,5.79,0,0,0-1.46,1.54l.39-.5a7.27,7.27,0,0,1-1.24,1.24l.51-.4a7,7,0,0,1-1.42.83l.59-.25c-1.26.52-2.67.85-3.59,1.95a2.73,2.73,0,0,0-.73,1.77,2.49,2.49,0,0,0,2.5,2.5,2.47,2.47,0,0,0,1.77-.73,1.93,1.93,0,0,1,.35-.35l-.51.39a4.13,4.13,0,0,1,.79-.45l-.6.26a17.87,17.87,0,0,0,3-1.31,10.58,10.58,0,0,0,1.49-1.18,12.76,12.76,0,0,0,1.24-1.51l-.39.51a2.72,2.72,0,0,1,.37-.39l-.5.39.16-.1-.59.25.25-.07-.66.09h.18l-.67-.09.17,0-.6-.25a.38.38,0,0,1,.15.09l-.51-.4.07.07-.4-.51.05.07-.25-.6,0,.07-.09-.66v.07l.34-1.26,0,.07.39-.51,0,.05.5-.39c-1.3.83-2.7,1.54-4.07,2.24a2.52,2.52,0,0,0-.9,3.42,2.56,2.56,0,0,0,3.42.89Z"/></g><g class="cls-6"><path class="cls-10" d="M146.55,215.44c-.08-.59-.17-1.17-.25-1.76l.08.66a2.81,2.81,0,0,1,0-.41l-.09.66a1.09,1.09,0,0,1,.05-.17l-.25.6a.54.54,0,0,1,.07-.13l-.39.5a.94.94,0,0,1,.1-.1l-.5.39.09-.05-.6.25.1,0-.66.09h.1l-.66-.09.07,0a1.85,1.85,0,0,0,1,0,1.71,1.71,0,0,0,.93-.3,1.8,1.8,0,0,0,.7-.64,1.71,1.71,0,0,0,.45-.85l.09-.66a2.44,2.44,0,0,0-.34-1.27l-.39-.5a2.41,2.41,0,0,0-1.1-.64,1.87,1.87,0,0,0-.4-.07,3.42,3.42,0,0,0-.39,0h-.05l-.66.09h-.07l-.33.14-.32.14-.08,0a4.25,4.25,0,0,0-.53.42l-.07.06a3.21,3.21,0,0,0-.76,1.36c-.05.23-.07.49-.1.73a.28.28,0,0,1,0,.09c0,.08,0,.15,0,.23.09.84.24,1.68.36,2.52a1.94,1.94,0,0,0,.45.85,1.87,1.87,0,0,0,.7.64,1.77,1.77,0,0,0,.93.3,2,2,0,0,0,1,0,2.53,2.53,0,0,0,1.49-1.15l.25-.6a2.5,2.5,0,0,0,0-1.33Z"/></g><g class="cls-6"><path class="cls-10" d="M141.05,217.29c-.92-.2-1.85-.45-2.79-.57a2.8,2.8,0,0,0-2.8,4.37,4.43,4.43,0,0,0,2.7,1.82,14.06,14.06,0,0,1,1.84.43l-.6-.25a4.49,4.49,0,0,1,.94.56l-.51-.39c1.18.93,2.19,2,3.71,2.42a2.6,2.6,0,0,0,1.93-.25,2.51,2.51,0,0,0-.6-4.57,3.09,3.09,0,0,1-.43-.14l.6.25a4,4,0,0,1-.84-.51l.5.4a15.43,15.43,0,0,0-2.61-2,6.79,6.79,0,0,0-1.8-.59,7.34,7.34,0,0,1-1.29-.31l.6.25a2.55,2.55,0,0,1-.43-.23l.51.39a2.06,2.06,0,0,1-.3-.29l.4.5a.65.65,0,0,1-.13-.23l.25.6,0-.09.08.67v-.09l-.09.66,0-.08-.25.6,0-.07-.39.5.06-.05-.51.39.08,0-.6.25.09,0-.66.09h.18l-.67-.09c.83.16,1.65.36,2.47.53a2.62,2.62,0,0,0,1.92-.25,2.5,2.5,0,0,0-.6-4.57Z"/></g><path class="cls-11" d="M22.51,46.69c-3,12-10.77,24.85-17.43,35.15-11.53,17.83-16.29,40.63-16.29,40.63"/><path class="cls-11" d="M14.08,29.43s1.12,16.89,10.7,17.83S39.79,30,38.67,24s-8.5-1.13-11.29-1.13-7.86-6.19-11.44-3C13.5,22,14.08,29.43,14.08,29.43Z"/><path class="cls-11" d="M18.71,43.63s-6,1.79-9.56-6.09S4.09,23.08,5.78,20.46s4.54,2.62,6.12,2.25,4-2.85,4-2.85"/><path class="cls-11" d="M34.15,41.17S45.76,30.78,46.51,26.84s-2.67-5-5.26-3.94L38.67,24"/><path class="cls-11" d="M8.76,20.64S10.43,16.14,14,16s4.9,1.13,6.58,1.13,3-1.17,4.7-1.15,4.75,1,5,6.22"/><path class="cls-11" d="M14.5,66.16S15,51.38,5.08,48.42c0,0,.2,12.18,8.61,19.22"/><path class="cls-11" d="M5.08,81.84A14.92,14.92,0,0,1,16.8,76.58c7.46.28,8.31,3.06,8.31,3.06A25.72,25.72,0,0,1,4.28,83.85"/><path class="cls-11" d="M146.93,164.8s-4.13-59.55-17.64-76.7S87.62,71.32,78.61,54.81c-3.45-6.32-4.92-10.55-5.42-13.36-.63-3.56,1.19-4.81,3.3-4.57,1.36.16,3.2.66,1.27,2.11-5.92,4.48-1,12.2-1,12.2"/><path class="cls-11" d="M84.09,61.43s-6.62-5.59-11-4.47-1.13,4.23,0,3.66S74.35,57.5,76,57"/><path class="cls-11" d="M98.12,69.46s-5.81-4.24-5-8.46c.3-1.48.82-2.15,1.38-2.4a1.19,1.19,0,0,1,1.34,1.85,7.37,7.37,0,0,1-2.8,2.24"/><path class="cls-11" d="M112.66,75.76s-11.58-2.07-12.37,1.1c-.6,2.39,1.83,2.43,2.53,1.32.4-.63.48-1.39.79-1.81.94-1.25,1.42-1.27,1.42-1.27"/><path class="cls-11" d="M128.18,86.78s-3-11-2-13.3,3.8-2.75,4.08-1.69c.89,3.31-4.29,3.31-4.17,5.2"/><path class="cls-11" d="M138.41,109.73s-6.89-9.19-9.31-8.9a2.06,2.06,0,0,0-1.69,3,2.18,2.18,0,0,0,3,.37,4.82,4.82,0,0,1,3-.39"/><path class="cls-11" d="M30.3,260.16s-12.4-20.28-10.77-39.05,14.62-40.17,14.62-40.17-4.72-9.19,7.53-16.14c0,0,2.76,12.48-7.53,16.14"/><path class="cls-11" d="M26.7,195.69s-7.78-2.73-8.25-14.18c0,0,7.8.59,9.12,12.22"/><path class="cls-11" d="M27.57,193.73a15.67,15.67,0,0,1,15.09-.87s-5.73,6-16,2.83"/><path class="cls-11" d="M21.3,211.17S12.81,210,11.5,201c0,0,6.17-.62,10.31,8.23"/><path class="cls-11" d="M21.81,209.26a18.75,18.75,0,0,1,14.84-2.51s-5,7.61-15.35,4.42"/><path class="cls-11" d="M19.38,229.09s-7.6,1.78-12.38-7.23c0,0,5.85-3.37,12.45,5.17"/><path class="cls-11" d="M19.5,227.88s5.14-8.64,14.53-6.2c0,0-1.57,6.43-14.65,7.41"/><path class="cls-11" d="M23.38,245.2s.84-6.69,14.21-7.53c0,0,0,7.14-13.22,10.17"/><path class="cls-11" d="M23.68,246s-6.31-6-14.34-5.15c0,0,.85,8.73,15,7"/><path class="cls-11" d="M71-16.89s6.7,22.8,21.71,34.19c13,9.85,33.1,14.73,38.31,15.87"/><path class="cls-11" d="M116.35,29.05s-3.21,7.61,5,15.64c0,0,4.81-6.18-2.94-15"/><path class="cls-11" d="M118.37,29.72a15.64,15.64,0,0,0,10.78-10.6s-8.29.21-12.8,9.93"/><path class="cls-11" d="M130,32.94s6.76,9.5,15.49,4.73c0,0-4-8.53-15.49-4.73"/><path class="cls-11" d="M101.24,22.67s-4.78,7.11.94,14.07c0,0,4.61-4.16.82-13.17"/><path class="cls-11" d="M103,23.57a18.76,18.76,0,0,0,11.82-9.32s-9-1.42-13.58,8.42"/><path class="cls-11" d="M86.67,12.06s-6.42,4.43-3,14c0,0,6.43-2.08,4.53-12.7"/><path class="cls-11" d="M87.65,12.78s9.86,2,14.35-6.6c0,0-5.82-3.16-15.33,5.88"/><path class="cls-11" d="M77-2.49s.21,8.7-5.81,14.08c0,0-5.9-6.48,4.92-15.81"/><path class="cls-11" d="M36.42,280.41s1.78-21.1,9.13-29.07c13.59-14.73,11.91-25.81,11.91-25.81"/><path class="cls-12" d="M50.34,201.15c.49,1.93,1,10.08,1.48,15.85a11.18,11.18,0,0,0,5.41,8.46"/><path class="cls-12" d="M57.23,225.46s-2.08-.09-3.32-10.78-.85-9.18-.85-9.18"/><path class="cls-12" d="M57.26,225.49s-1.95-18.65-1.37-21.63"/><path class="cls-12" d="M57.4,225.47a8.29,8.29,0,0,0,2.81-5.17c.5-3.43-1.33-6.26-1.3-9.36a30.46,30.46,0,0,1,1.52-7.5"/><path class="cls-12" d="M57.24,225.47a111.26,111.26,0,0,0,3-10.86,85.72,85.72,0,0,0,1.12-10"/><path class="cls-12" d="M57.24,225.55s-5.83-2.29-8.14-7.06-.88-13.91-.88-13.91"/><path class="cls-12" d="M57.29,225.45s9.7-2.74,10.54-17"/><path class="cls-12" d="M57.73,225.09S61.44,222.28,63,215c.92-4.37,3.15-5.07,2.67-8.62"/><path class="cls-12" d="M57.23,225.43s6.23,0,8.29-2.44,1-8.55,2.49-12.69S70.57,206,70.57,206"/><path class="cls-12" d="M57.58,225.56s8.83,1,10.34-2.71.44-6.08,1.12-8.71A26.53,26.53,0,0,1,72,208"/><path class="cls-12" d="M57.57,225.4s6.49,2.58,9.91-.3,8.85-9.4,6.3-21.62"/><path class="cls-13" d="M48.59,203.28a2.65,2.65,0,0,1-.39,2.35,2.89,2.89,0,0,1-.33-2.37C48.14,202.39,48.59,203.28,48.59,203.28Z"/><path class="cls-13" d="M50.57,200.13a2.63,2.63,0,0,1,0,2.38,2.88,2.88,0,0,1-.72-2.29C50,199.32,50.57,200.13,50.57,200.13Z"/><path class="cls-13" d="M53.32,204a2.66,2.66,0,0,1-.24,2.37A2.88,2.88,0,0,1,52.6,204C52.82,203.13,53.32,204,53.32,204Z"/><path class="cls-13" d="M56.24,202.64a2.65,2.65,0,0,1-.36,2.35,2.93,2.93,0,0,1-.36-2.37C55.79,201.75,56.24,202.64,56.24,202.64Z"/><path class="cls-13" d="M61,202.16a2.66,2.66,0,0,1-.76,2.26,2.92,2.92,0,0,1,.06-2.4C60.74,201.2,61,202.16,61,202.16Z"/><path class="cls-13" d="M61.8,203.29a2.65,2.65,0,0,1-.47,2.34,2.92,2.92,0,0,1-.25-2.38C61.38,202.39,61.8,203.29,61.8,203.29Z"/><path class="cls-13" d="M66.11,205.05a2.65,2.65,0,0,1-.47,2.34,2.92,2.92,0,0,1-.25-2.38C65.69,204.15,66.11,205.05,66.11,205.05Z"/><path class="cls-13" d="M68,207.07a2.64,2.64,0,0,1-.07,2.38,2.88,2.88,0,0,1-.64-2.31C67.44,206.24,68,207.07,68,207.07Z"/><path class="cls-13" d="M71.53,205.32a2.67,2.67,0,0,1-1.83,1.53,2.92,2.92,0,0,1,1.3-2C71.77,204.35,71.53,205.32,71.53,205.32Z"/><path class="cls-13" d="M73.8,202.14a2.66,2.66,0,0,1,.21,2.38,2.91,2.91,0,0,1-.91-2.22C73.15,201.39,73.8,202.14,73.8,202.14Z"/><path class="cls-13" d="M73,207.15a2.66,2.66,0,0,1-1.57,1.8,2.9,2.9,0,0,1,1-2.2C73.06,206.15,73,207.15,73,207.15Z"/><path class="cls-11" d="M100.77,188a15.23,15.23,0,0,1,1.42-13.16c4.17-6.58,6.8-4.05,8.88-6.58A22.4,22.4,0,0,1,109.32,188s5-3.29,13-2.52,7,4.05,9.32,5.59c0,0-5.81,5.26-12.39,4.93a34.14,34.14,0,0,1-11.94-3s7.12,2.17,11.4,7.88,0,8.45,1.09,12.62c0,0-4.82-3.65-9.53-3.69s-9.1-9.9-9.43-13.41c0,0-4.94,11.44-11.62,12.9s-7.24-.11-8.88.51c0,0,3.18-3.08,3.72-5.94s3.29-10.43,13.27-10.65c0,0-14.47-1.32-17-6.25s-.55-7.13-1.54-9.21c0,0,10.53-1.31,16,4.61C99.47,187.4,100.77,188,100.77,188Z"/><path class="cls-11" d="M100.88,196.44a38.5,38.5,0,0,0,1.37,20.14c3.75,10.51,15,15.66,18.52,22.46s3.86,16.05,3.86,16.05"/><path class="cls-11" d="M102.25,216.58S95,211.93,89.6,215.41a11.06,11.06,0,0,0-4.88,8.53,23,23,0,0,0,10.54-4.37c2.09-1.56,5.4-.63,8.13-.37"/><path class="cls-11" d="M107.22,225s-.38-8.14,5.83-8.1,8.55,4.05,8.55,4.05-5.15-1.32-8.2.56c-1.77,1.08-4.69,4.92-4.69,4.92"/><circle class="cls-13" cx="102.89" cy="192.6" r="1.69"/><ellipse class="cls-14" cx="58.37" cy="10.61" rx="3.57" ry="1.71" transform="translate(2.51 30.6) rotate(-30)"/><ellipse class="cls-14" cx="57.84" cy="15.37" rx="1.71" ry="3.57" transform="translate(13.27 55.31) rotate(-56.75)"/><ellipse class="cls-14" cx="52.52" cy="16.2" rx="3.57" ry="1.71" transform="translate(14.53 55.91) rotate(-63.4)"/><ellipse class="cls-14" cx="50.31" cy="11.33" rx="1.71" ry="3.57" transform="translate(26.23 56.93) rotate(-74.85)"/><ellipse class="cls-14" cx="53.79" cy="8.11" rx="1.71" ry="3.57" transform="matrix(0.97, -0.26, 0.26, 0.97, -0.27, 14.2)"/><circle class="cls-13" cx="54.41" cy="12.44" r="1.58"/><ellipse class="cls-14" cx="68.06" cy="157.35" rx="3.57" ry="1.71" transform="translate(-69.56 55.11) rotate(-30)"/><ellipse class="cls-14" cx="67.53" cy="162.11" rx="1.71" ry="3.57" transform="translate(-105.06 129.69) rotate(-56.75)"/><ellipse class="cls-14" cx="62.22" cy="162.94" rx="3.57" ry="1.71" transform="translate(-111.33 145.63) rotate(-63.4)"/><ellipse class="cls-14" cx="60.01" cy="158.07" rx="1.71" ry="3.57" transform="translate(-108.25 174.68) rotate(-74.85)"/><ellipse class="cls-14" cx="63.48" cy="154.85" rx="1.71" ry="3.57" transform="translate(-37.91 21.71) rotate(-15)"/><circle class="cls-13" cx="64.1" cy="159.18" r="1.58"/><ellipse class="cls-15" cx="136.54" cy="54.11" rx="3.57" ry="1.71" transform="translate(-8.76 75.52) rotate(-30)"/><ellipse class="cls-15" cx="136.01" cy="58.87" rx="1.71" ry="3.57" transform="matrix(0.55, -0.84, 0.84, 0.55, 12.21, 140.33)"/><ellipse class="cls-15" cx="130.7" cy="59.69" rx="3.57" ry="1.71" transform="translate(18.81 149.84) rotate(-63.4)"/><ellipse class="cls-15" cx="128.49" cy="54.82" rx="1.71" ry="3.57" transform="translate(42 164.52) rotate(-74.85)"/><ellipse class="cls-15" cx="131.96" cy="51.6" rx="1.71" ry="3.57" transform="translate(-8.86 35.91) rotate(-15)"/><circle class="cls-16" cx="132.59" cy="55.93" r="1.58"/><ellipse class="cls-14" cx="131.46" cy="200.8" rx="3.31" ry="1.59" transform="translate(-106.13 234.76) rotate(-64.92)"/><ellipse class="cls-14" cx="130.97" cy="209.12" rx="3.31" ry="1.59" transform="translate(-89.77 98.86) rotate(-31.4)"/><path class="cls-14" d="M136.84,204.57c-.78,1.66-2.05,2.7-2.84,2.33s-.81-2,0-3.67,1.41-2.73,2.21-2.36S137.61,202.92,136.84,204.57Z"/><path class="cls-14" d="M139.4,220.25c-1.8-.29-3.15-1.22-3-2.09s1.72-1.33,3.52-1,3,.6,2.87,1.46S141.21,220.54,139.4,220.25Z"/><ellipse class="cls-14" cx="132.62" cy="203.71" rx="1.82" ry="0.87" transform="matrix(0.25, -0.97, 0.97, 0.25, -98.1, 280.21)"/><ellipse class="cls-14" cx="135.81" cy="212" rx="2.5" ry="1.2" transform="translate(-55.26 48.05) rotate(-16.72)"/><ellipse class="cls-14" cx="142.07" cy="221.5" rx="1.2" ry="2.5" transform="translate(-89.69 346.12) rotate(-85.59)"/><ellipse class="cls-14" cx="127.55" cy="205.67" rx="3.31" ry="1.59" transform="translate(-74.65 72.68) rotate(-24.86)"/><path class="cls-14" d="M144.68,214.1c-.47,1.77-1.53,3-2.38,2.8s-1.15-1.84-.69-3.6,1.66-2.4,2.5-2.18S145.14,212.34,144.68,214.1Z"/><ellipse class="cls-14" cx="88.59" cy="241.31" rx="3.57" ry="1.71" transform="translate(-108.79 76.62) rotate(-30)"/><ellipse class="cls-14" cx="88.05" cy="246.07" rx="1.71" ry="3.57" transform="translate(-166.01 184.78) rotate(-56.75)"/><ellipse class="cls-14" cx="82.74" cy="246.89" rx="3.57" ry="1.71" transform="translate(-175.07 210.35) rotate(-63.4)"/><ellipse class="cls-14" cx="80.53" cy="242.02" rx="1.71" ry="3.57" transform="translate(-174.13 256.51) rotate(-74.85)"/><ellipse class="cls-14" cx="84.01" cy="238.81" rx="1.71" ry="3.57" transform="matrix(0.97, -0.26, 0.26, 0.97, -58.94, 29.88)"/><circle class="cls-13" cx="84.63" cy="243.13" r="1.58"/><ellipse class="cls-14" cx="46.6" cy="61.62" rx="3.57" ry="1.71" transform="translate(-24.57 31.56) rotate(-30)"/><ellipse class="cls-14" cx="46.07" cy="66.38" rx="1.71" ry="3.57" transform="translate(-34.71 68.51) rotate(-56.75)"/><ellipse class="cls-14" cx="40.76" cy="67.21" rx="3.57" ry="1.71" transform="translate(-37.59 73.56) rotate(-63.4)"/><ellipse class="cls-14" cx="38.54" cy="62.34" rx="1.71" ry="3.57" transform="translate(-31.7 83.25) rotate(-74.85)"/><ellipse class="cls-14" cx="42.02" cy="59.12" rx="1.71" ry="3.57" transform="translate(-13.87 12.89) rotate(-15)"/><circle class="cls-13" cx="42.64" cy="63.45" r="1.58"/><ellipse class="cls-14" cx="58.8" cy="77.25" rx="3.57" ry="1.71" transform="matrix(0.99, -0.13, 0.13, 0.99, -9.47, 8.22)"/><ellipse class="cls-14" cx="56.49" cy="81.44" rx="1.71" ry="3.57" transform="translate(-35.98 45.76) rotate(-34.15)"/><ellipse class="cls-14" cx="51.26" cy="80.17" rx="3.57" ry="1.71" transform="translate(-39.93 52.99) rotate(-40.81)"/><ellipse class="cls-14" cx="51.09" cy="74.82" rx="1.71" ry="3.57" transform="translate(-39.35 69.42) rotate(-52.26)"/><ellipse class="cls-14" cx="55.54" cy="73.18" rx="3.57" ry="1.71" transform="translate(-24.34 118.56) rotate(-82.41)"/><circle class="cls-13" cx="54.45" cy="77.42" r="1.58"/><path class="cls-14" d="M129.3,203.43s12.65,7.33,18.23,25.66"/><ellipse class="cls-14" cx="139.97" cy="209.12" rx="3.31" ry="1.59" transform="translate(-88.45 103.55) rotate(-31.4)"/><path class="cls-11" d="M146.93,173.44s-5.74,2.25-19.77-9.39S110,138.52,110,138.52s16.66-14.45,37.87-5.63Z"/><path class="cls-11" d="M145.47,153.59s-9.39-9.2-14.64-10.14a23.08,23.08,0,0,0-8.94,0"/><path class="cls-11" d="M140.5,149.08a7,7,0,0,0-7.21,2.47"/><path class="cls-11" d="M133,144.17s-4.44-.57-7,2.36"/><path class="cls-11" d="M137.59,146.94s-2.47-4-.22-7.29"/><path class="cls-14" d="M135.29,209.12a2.44,2.44,0,0,0-2.7.79c-1.26,1.4.37,1.64,1.35,1.17a11.94,11.94,0,0,0,2.43-1.32C136.46,209.54,135.29,209.12,135.29,209.12Z"/><path class="cls-11" d="M-13,214.81c18.41-40.5,25.84-58.13,25.57-73.89-.11-6.26-4.35-16.62-9.13-16.62"/><path class="cls-11" d="M17.33,119.21s1.59-11.24-2.57-13c-3.25-1.39-3,3.13-1.66,3.49s3.31-.74,4.24,1"/><path class="cls-11" d="M32.41,89.92a5.38,5.38,0,0,1,2.93,0c3.43,1.17,8.54,3.49,6.59-.45-2.67-5.4-13.93.94-18.49,11.55-5.17,12.06-8,25.52-9.14,29.37-1.37,4.57-2,16.74-2,16.74"/><path class="cls-11" d="M-6.45,200.29s9.38-17.74,14.26-19.93,5.53,3.43,4.16,4.28c-1.6,1-4.83-2.86-7.63-1.24"/><path class="cls-11" d="M3.47,124.3s-5,0-3.27,4.86c.64,1.74,3.18-2.25,5.13-2.29a4.94,4.94,0,0,1,3.33,1.39"/></g></g></svg>