<svg id="Layer_1" data-name="Layer 1" xmlns="http://www.w3.org/2000/svg" viewBox="0 0 600.57 589.02"><defs><style>.cls-1{fill:#f1e4d9;stroke:#2f140c;stroke-miterlimit:10;stroke-width:34.88px;}</style></defs><path class="cls-1" d="M206.76,125.35,152.12,32.26a27.94,27.94,0,0,0-28.64-13.74c-24.6,4.2-66.43,17.31-88.26,58.14-25.38,47.44-19.58,96.49-1.4,148.23S144.29,465.4,300.9,529.73s201.37,44.75,255.9-5.6c0,0,19.14-15.88,22.89-30.76,5.89-23.35.65-54.05-14.5-57.33l-107.9-58.79a29,29,0,0,0-36.77,5.65l-35.16,39.9c-12.65,14.35-31.7,13.77-50,8.29C300.1,420.55,267,409.31,221.2,352.14c-31.48-39.3-46.4-71.38-63.48-101.68a38.19,38.19,0,0,1,5.21-44.58l40-43.73A31.17,31.17,0,0,0,206.76,125.35Z"/></svg>