<svg id="Layer_1" data-name="Layer 1" xmlns="http://www.w3.org/2000/svg" viewBox="0 0 545.66 545.38"><defs><style>.cls-1{fill:#2f140c;}</style></defs><path class="cls-1" d="M264,37.68A196.28,196.28,0,0,0,254,59.9a271.5,271.5,0,0,0-14.27,49.45c-4.37,23.1-6.31,47-4,70.4a197.37,197.37,0,0,0,12.49,52.48c5.33,13.81,11.55,27.37,13.57,42.17l-.52-3.81a89.9,89.9,0,0,1-.1,23.52l.51-3.81c-2.08,15-7.51,29.1-12.77,43.18-2.73,7.33-5.42,14.69-7.63,22.2a170,170,0,0,0-5.55,27.46c-2.25,18.24-.07,36.82,3.83,54.69a290,290,0,0,0,13.58,44c3.3,8.42,6.76,16.87,10.83,25,3.37,6.7,13.36,9.14,19.57,5.13,6.85-4.41,8.74-12.41,5.13-19.57-2.19-4.36-4.15-8.86-6.05-13.35l1.44,3.41c-9.24-21.91-16.63-44.94-19.81-68.57l.51,3.81a137.72,137.72,0,0,1-.23-35.94l-.51,3.8c2.17-15.78,7.38-30.76,12.94-45.62s10.75-29.8,12.82-45.76A100.23,100.23,0,0,0,287,255c-2.75-10.13-7-19.75-10.81-29.51a188.78,188.78,0,0,1-11.53-42.7l.51,3.8c-2.65-19.75-2.13-39.89.48-59.62l-.51,3.8a270,270,0,0,1,18.56-68.32l-1.44,3.42a146.33,146.33,0,0,1,6.44-13.79c3.6-6.56,1.83-15.9-5.13-19.57-6.7-3.54-15.73-1.88-19.57,5.13Z"/></svg>